<?xml version="1.0" encoding="UTF-8"?><svg id="a" xmlns="http://www.w3.org/2000/svg" width="24" height="24" viewBox="0 0 24 24"><path fill="#ED683B" d="m20,3.25H4c-1.5166,0-2.75,1.2334-2.75,2.75v12c0,1.5166,1.2334,2.75,2.75,2.75h16c1.5166,0,2.75-1.2334,2.75-2.75V6c0-1.5166-1.2334-2.75-2.75-2.75Zm1.25,14.75c0,.68945-.56055,1.25-1.25,1.25H4c-.68945,0-1.25-.56055-1.25-1.25v-7.78638l8.02051,4.01001c.38477.19238.80713.28809,1.22949.28809s.84473-.0957,1.22998-.28809l8.02002-4.01001v7.78638Zm0-9.46387l-8.69043,4.3457c-.35059.17578-.76904.17578-1.11865,0L2.75,8.53613v-2.53613c0-.68945.56055-1.25,1.25-1.25h16c.68945,0,1.25.56055,1.25,1.25v2.53613Z" stroke-width="0"/></svg>