<?xml version="1.0" encoding="UTF-8" standalone="no"?>
<svg
   id="arrow-circle-right"
   version="1.1"
   viewBox="0 0 7.9749999 8"
   sodipodi:docname="icon-arrow-right.svg"
   width="7.9749999"
   height="8"
   inkscape:version="1.3 (0e150ed6c4, 2023-07-21)"
   xmlns:inkscape="http://www.inkscape.org/namespaces/inkscape"
   xmlns:sodipodi="http://sodipodi.sourceforge.net/DTD/sodipodi-0.dtd"
   xmlns="http://www.w3.org/2000/svg"
   xmlns:svg="http://www.w3.org/2000/svg">
  <sodipodi:namedview
     id="namedview1"
     pagecolor="#505050"
     bordercolor="#eeeeee"
     borderopacity="1"
     inkscape:showpageshadow="0"
     inkscape:pageopacity="0"
     inkscape:pagecheckerboard="0"
     inkscape:deskcolor="#505050"
     inkscape:zoom="47.375"
     inkscape:cx="4"
     inkscape:cy="4"
     inkscape:window-width="2560"
     inkscape:window-height="1351"
     inkscape:window-x="-9"
     inkscape:window-y="-9"
     inkscape:window-maximized="1"
     inkscape:current-layer="arrow-circle-right" />
  <!-- Generator: Adobe Illustrator 30.1.0, SVG Export Plug-In . SVG Version: 2.1.1 Build 136)  -->
  <defs
     id="defs1">
    <style
       id="style1">&#10;      .st0 {&#10;        fill: #fff;&#10;      }&#10;    </style>
  </defs>
  <path
     class="st0"
     d="M 7.7,4.7 C 7.7,4.7 7.9,4.5 7.9,4.4 8,4.2 8,3.9 7.9,3.6 7.9,3.5 7.8,3.4 7.7,3.3 l -3,-3 c -0.4,-0.4 -1,-0.4 -1.4,0 -0.4,0.4 -0.4,1 0,1.4 L 4.6,3 H 1 C 0.4,3 0,3.4 0,4 0,4.6 0.4,5 1,5 H 4.6 L 3.3,6.3 c -0.4,0.4 -0.4,1 0,1.4 0,0 0,0 0,0 0.4,0.4 1,0.4 1.4,0 0,0 0,0 0,0 z"
     id="path1" />
</svg>
