<?xml version="1.0" encoding="UTF-8" standalone="no"?>
<svg
   width="30.003555"
   height="30.003555"
   viewBox="0 0 30.003555 30.003555"
   version="1.1"
   id="svg1"
   sodipodi:docname="icon-record.svg"
   inkscape:version="1.3 (0e150ed6c4, 2023-07-21)"
   xmlns:inkscape="http://www.inkscape.org/namespaces/inkscape"
   xmlns:sodipodi="http://sodipodi.sourceforge.net/DTD/sodipodi-0.dtd"
   xmlns="http://www.w3.org/2000/svg"
   xmlns:svg="http://www.w3.org/2000/svg">
  <defs
     id="defs1" />
  <sodipodi:namedview
     id="namedview1"
     pagecolor="#505050"
     bordercolor="#eeeeee"
     borderopacity="1"
     inkscape:showpageshadow="0"
     inkscape:pageopacity="0"
     inkscape:pagecheckerboard="0"
     inkscape:deskcolor="#505050"
     inkscape:zoom="30.945511"
     inkscape:cx="15.010254"
     inkscape:cy="15.010254"
     inkscape:window-width="2560"
     inkscape:window-height="1351"
     inkscape:window-x="-9"
     inkscape:window-y="-9"
     inkscape:window-maximized="1"
     inkscape:current-layer="svg1" />
  <g
     id="record2"
     transform="matrix(0.966,-0.259,0.259,0.966,-3.3732226,4.3967774)">
    <g
       id="Layer_1"
       data-name="Layer 1">
      <g
         id="Group_60"
         data-name="Group 60">
        <circle
           id="Ellipse_23"
           data-name="Ellipse 23"
           cx="15"
           cy="15"
           r="15" />
        <g
           id="Group_58"
           data-name="Group 58">
          <path
             id="Path_196"
             data-name="Path 196"
             d="m 18.85,26.91 a 0.254,0.254 0 0 1 -0.11,-0.48 23.3,23.3 0 0 0 4.14,-2.93 42.032,42.032 0 0 1 -5.74,2.98 0.255,0.255 0 0 1 -0.32,-0.13 0.25,0.25 0 0 1 0.12,-0.32 23.22,23.22 0 0 0 3.36,-2.26 20.555,20.555 0 0 1 -3.19,1.45 0.252,0.252 0 0 1 -0.22,-0.45 33.429,33.429 0 0 0 3.27,-2.38 20.074,20.074 0 0 1 -3.07,1.65 0.255,0.255 0 0 1 -0.32,-0.11 0.267,0.267 0 0 1 0.08,-0.33 31.573,31.573 0 0 0 3.32,-2.48 12.4,12.4 0 0 1 -3.15,1.5 0.253,0.253 0 0 1 -0.18,-0.47 10.528,10.528 0 0 0 2.47,-1.89 7.42,7.42 0 0 1 -2.3,0.93 0.23,0.23 0 0 1 -0.27,-0.17 0.25,0.25 0 0 1 0.12,-0.3 8.1,8.1 0 0 0 1.77,-1.3 4.243,4.243 0 0 1 -1.43,0.28 0.248,0.248 0 0 1 -0.23,-0.27 0.254,0.254 0 0 1 0.27,-0.23 6.744,6.744 0 0 0 2.11,-0.59 0.247,0.247 0 0 1 0.29,0.07 0.256,0.256 0 0 1 0.02,0.3 6.256,6.256 0 0 1 -0.94,1.05 16.239,16.239 0 0 0 1.85,-1.17 0.254,0.254 0 0 1 0.36,0.35 14.211,14.211 0 0 1 -1.86,2 17.325,17.325 0 0 0 3.22,-2.37 0.233,0.233 0 0 1 0.32,-0.02 0.249,0.249 0 0 1 0.08,0.31 10.07,10.07 0 0 1 -2.48,2.63 c 1.93,-1.26 3.55,-2.57 3.57,-2.59 a 0.24,0.24 0 0 1 0.34,0.03 0.258,0.258 0 0 1 0,0.34 53.017,53.017 0 0 1 -4.96,4.26 28.674,28.674 0 0 0 5.58,-3.73 0.248,0.248 0 1 1 0.33,0.37 c -0.15,0.13 -2.51,2.24 -4.84,4 2.29,-1.25 4.49,-2.66 4.53,-2.69 a 0.248,0.248 0 0 1 0.33,0.05 0.257,0.257 0 0 1 -0.01,0.33 31.494,31.494 0 0 1 -4.56,3.81 21.658,21.658 0 0 0 3.67,-2.21 0.25,0.25 0 1 1 0.3,0.4 c -0.15,0.11 -3.6,2.71 -5.65,2.78 v 0 z"
             fill="#605d5d" />
        </g>
        <g
           id="Group_59"
           data-name="Group 59">
          <path
             id="Path_197"
             data-name="Path 197"
             d="M 10.42,11.09 A 0.246,0.246 0 0 1 10.23,11 0.254,0.254 0 0 1 10.21,10.7 6.256,6.256 0 0 1 11.15,9.65 16.239,16.239 0 0 0 9.3,10.82 0.271,0.271 0 0 1 8.97,10.8 0.258,0.258 0 0 1 8.94,10.47 13.839,13.839 0 0 1 10.8,8.48 16.829,16.829 0 0 0 7.58,10.85 0.233,0.233 0 0 1 7.26,10.87 0.249,0.249 0 0 1 7.18,10.56 10.07,10.07 0 0 1 9.66,7.93 C 7.73,9.19 6.11,10.5 6.09,10.52 A 0.252,0.252 0 0 1 5.75,10.15 53.017,53.017 0 0 1 10.71,5.89 29.022,29.022 0 0 0 5.13,9.62 v 0 A 0.248,0.248 0 0 1 4.8,9.25 C 4.95,9.12 7.31,7.01 9.64,5.25 7.35,6.5 5.15,7.92 5.11,7.94 A 0.248,0.248 0 0 1 4.78,7.89 0.257,0.257 0 0 1 4.79,7.56 31.951,31.951 0 0 1 9.35,3.74 21.205,21.205 0 0 0 5.68,5.95 0.25,0.25 0 1 1 5.38,5.55 C 5.53,5.44 8.98,2.84 11.03,2.77 A 0.247,0.247 0 0 1 11.28,2.96 0.237,0.237 0 0 1 11.15,3.24 23.3,23.3 0 0 0 7.01,6.17 42.033,42.033 0 0 1 12.75,3.19 0.255,0.255 0 0 1 13.07,3.32 0.25,0.25 0 0 1 12.95,3.64 23.219,23.219 0 0 0 9.59,5.9 20.555,20.555 0 0 1 12.78,4.45 0.252,0.252 0 0 1 13,4.9 33.429,33.429 0 0 0 9.73,7.28 20.987,20.987 0 0 1 12.8,5.63 a 0.255,0.255 0 0 1 0.32,0.11 0.267,0.267 0 0 1 -0.08,0.33 31.573,31.573 0 0 0 -3.32,2.48 12.769,12.769 0 0 1 3.15,-1.51 0.253,0.253 0 0 1 0.18,0.47 10.528,10.528 0 0 0 -2.47,1.89 7.42,7.42 0 0 1 2.3,-0.93 0.235,0.235 0 0 1 0.27,0.17 0.257,0.257 0 0 1 -0.12,0.3 8,8 0 0 0 -1.76,1.3 4.243,4.243 0 0 1 1.43,-0.28 0.251,0.251 0 0 1 -0.04,0.5 6.6,6.6 0 0 0 -2.11,0.59 0.355,0.355 0 0 1 -0.1,0.02 z"
             fill="#605d5d" />
        </g>
      </g>
    </g>
    <path
       id="Polygon_1"
       data-name="Polygon 1"
       d="m 5.481,0 5.481,9.256 H 0 Z"
       transform="matrix(-0.259,0.966,-0.966,-0.259,22.497,11.334)"
       fill="#ffffff" />
  </g>
</svg>
