<?xml version="1.0" encoding="UTF-8"?>
<svg id="Layer_1" data-name="Layer 1" xmlns="http://www.w3.org/2000/svg" width="30" height="30" viewBox="0 0 30 30">
  <defs>
    <style>
      .cls-1 {
        mix-blend-mode: lighten;
      }

      .cls-2 {
        isolation: isolate;
      }

      .cls-3 {
        fill: #605d5d;
      }
    </style>
  </defs>
  <g class="cls-2">
    <g id="Layer_1-2" data-name="Layer 1">
      <g>
        <circle cx="15" cy="15" r="15"/>
        <g class="cls-1">
          <path class="cls-3" d="M18.85,27.91c-.11,0-.21-.08-.24-.19s.02-.23.13-.29c1.5-.78,3.01-1.96,4.14-2.93-1.71,1.02-4.08,2.36-5.74,2.98-.12.05-.26-.01-.32-.13-.05-.12,0-.26.12-.32.91-.45,2.14-1.32,3.36-2.26-.99.55-2.07,1.06-3.19,1.45-.12.04-.25-.01-.31-.13-.05-.11-.02-.25.09-.32,1.14-.72,2.27-1.56,3.27-2.38-1.01.64-2.08,1.25-3.07,1.65-.12.05-.26,0-.32-.11s-.02-.25.08-.33c1.45-.96,2.53-1.79,3.32-2.48-.9.58-1.99,1.16-3.15,1.5-.12.04-.25-.03-.3-.15-.05-.12,0-.26.12-.32.96-.5,1.82-1.24,2.47-1.89-.72.41-1.58.82-2.3.93-.13.02-.24-.05-.27-.17-.04-.11.01-.24.12-.3.79-.43,1.38-.92,1.77-1.3-.48.16-1.05.31-1.43.28-.14-.01-.24-.13-.23-.27.01-.14.14-.24.27-.23.51.04,1.7-.41,2.11-.59.1-.04.22-.02.29.07.07.08.08.21.02.3-.02.03-.32.48-.94,1.05.99-.53,1.84-1.16,1.85-1.17.1-.07.24-.07.33.02s.1.23.03.33c-.04.06-.76,1.02-1.86,2,1.86-1.04,3.2-2.36,3.22-2.37.09-.09.22-.1.32-.02.1.07.13.2.08.31-.03.05-.51.99-2.48,2.63,1.93-1.26,3.55-2.57,3.57-2.59.1-.09.25-.07.34.03s.08.25,0,.34c-.03.03-2.26,2.24-4.96,4.26,3.14-1.57,5.55-3.7,5.58-3.73.1-.09.26-.08.35.02s.08.26-.02.35c-.15.13-2.51,2.24-4.84,4,2.29-1.25,4.49-2.66,4.53-2.69.11-.07.25-.05.33.05.08.1.07.24-.01.33-.1.11-2.15,2.2-4.56,3.81,1.75-.76,3.64-2.19,3.67-2.21.11-.08.27-.06.35.05.08.11.06.27-.05.35-.15.11-3.6,2.71-5.65,2.78h0Z"/>
        </g>
        <g class="cls-1">
          <path class="cls-3" d="M10.42,10.09c-.07,0-.14-.03-.19-.09-.07-.08-.08-.2-.02-.3.02-.03.32-.48.94-1.05-.99.53-1.84,1.16-1.85,1.17-.1.07-.24.06-.33-.02-.09-.09-.1-.23-.03-.33.04-.06.76-1.02,1.86-1.99-1.86,1.04-3.2,2.35-3.22,2.37-.09.09-.22.1-.32.02-.1-.07-.13-.2-.08-.31.03-.05.51-.99,2.48-2.63-1.93,1.26-3.55,2.57-3.57,2.59-.1.08-.25.07-.34-.03-.09-.1-.09-.25,0-.34.03-.03,2.26-2.24,4.96-4.26-3.12,1.56-5.52,3.68-5.58,3.73h0c-.1.09-.26.08-.35-.02-.09-.1-.08-.26.02-.35.15-.13,2.51-2.24,4.84-4-2.29,1.25-4.49,2.67-4.53,2.69-.11.07-.25.05-.33-.05-.08-.1-.07-.24.01-.33.1-.11,2.15-2.2,4.56-3.82-1.75.76-3.65,2.19-3.67,2.21-.11.08-.27.06-.35-.05s-.06-.27.05-.35c.15-.11,3.6-2.71,5.65-2.78.12,0,.22.07.25.19.03.11-.02.23-.13.28-1.5.78-3.01,1.96-4.14,2.93,1.71-1.02,4.08-2.36,5.74-2.98.12-.05.26,0,.32.13.05.12,0,.26-.12.32-.91.45-2.14,1.32-3.36,2.26.99-.55,2.07-1.06,3.19-1.45.12-.04.25.01.31.13.05.11.02.25-.09.32-1.14.72-2.27,1.56-3.27,2.38,1.01-.64,2.08-1.24,3.07-1.65.12-.05.26,0,.32.11.06.11.02.25-.08.33-1.45.96-2.53,1.79-3.32,2.48.9-.58,1.99-1.16,3.15-1.51.12-.04.25.03.3.15s0,.26-.12.32c-.96.5-1.82,1.24-2.47,1.89.72-.41,1.58-.82,2.3-.93.12-.02.24.05.27.17s-.01.24-.12.3c-.79.43-1.37.92-1.76,1.3.48-.16,1.05-.31,1.43-.28.14.01.24.13.23.27s-.13.24-.27.23c-.53-.04-1.7.41-2.11.59-.03.01-.07.02-.1.02l-.03.02Z"/>
        </g>
      </g>
    </g>
  </g>
</svg>