<?xml version="1.0" encoding="UTF-8" standalone="no"?>
<!-- Created with Inkscape (http://www.inkscape.org/) -->

<svg
   width="5.2599158mm"
   height="5.2917337mm"
   viewBox="0 0 5.2599158 5.2917337"
   version="1.1"
   id="svg1"
   inkscape:version="1.3 (0e150ed6c4, 2023-07-21)"
   sodipodi:docname="icon-linkedin-orange.svg"
   xmlns:inkscape="http://www.inkscape.org/namespaces/inkscape"
   xmlns:sodipodi="http://sodipodi.sourceforge.net/DTD/sodipodi-0.dtd"
   xmlns="http://www.w3.org/2000/svg"
   xmlns:svg="http://www.w3.org/2000/svg">
  <sodipodi:namedview
     id="namedview1"
     pagecolor="#505050"
     bordercolor="#eeeeee"
     borderopacity="1"
     inkscape:showpageshadow="0"
     inkscape:pageopacity="0"
     inkscape:pagecheckerboard="0"
     inkscape:deskcolor="#505050"
     inkscape:document-units="mm"
     inkscape:zoom="1.0128998"
     inkscape:cx="87.372904"
     inkscape:cy="102.18187"
     inkscape:window-width="2560"
     inkscape:window-height="1351"
     inkscape:window-x="-9"
     inkscape:window-y="-9"
     inkscape:window-maximized="1"
     inkscape:current-layer="layer1" />
  <defs
     id="defs1" />
  <g
     inkscape:label="Layer 1"
     inkscape:groupmode="layer"
     id="layer1"
     transform="translate(-81.75625,-121.44375)">
    <path
       id="linkedin"
       d="m 86.627229,121.44379 h -4.482042 a 0.38364583,0.38364583 0 0 0 -0.388937,0.37835 v 4.53496 a 0.38364583,0.38364583 0 0 0 0.388937,0.37835 h 4.482042 a 0.38364583,0.38364583 0 0 0 0.388937,-0.37835 v -4.53496 a 0.38364583,0.38364583 0 0 0 -0.388937,-0.37835 z m -3.275542,4.42912 h -0.79375 v -2.38125 h 0.79375 z m -0.396875,-2.71462 v 0 a 0.41275,0.41275 0 1 1 0,-0.8255 0.41539583,0.41539583 0 1 1 0,0.8255 z m 3.259667,2.71462 h -0.79375 v -1.27794 c 0,-0.32014 -0.113771,-0.52916 -0.402167,-0.52916 a 0.43656249,0.43656249 0 0 0 -0.407458,0.28839 0.52916666,0.52916666 0 0 0 -0.02646,0.19315 v 1.32292 h -0.79375 v -2.38125 h 0.79375 v 0.33602 a 0.79374999,0.79374999 0 0 1 0.717021,-0.39688 c 0.529167,0 0.912813,0.34131 0.912813,1.07421 z"
       fill="#ed683b"
       style="stroke-width:0.264583" />
  </g>
</svg>
