<?xml version="1.0" encoding="UTF-8" standalone="no"?>
<svg
   viewBox="0 0 20 20"
   id="arrow-circle-right"
   version="1.1"
   sodipodi:docname="icon-arrow-circle-left-grey.svg"
   width="20"
   height="20"
   inkscape:version="1.3 (0e150ed6c4, 2023-07-21)"
   xmlns:inkscape="http://www.inkscape.org/namespaces/inkscape"
   xmlns:sodipodi="http://sodipodi.sourceforge.net/DTD/sodipodi-0.dtd"
   xmlns="http://www.w3.org/2000/svg"
   xmlns:svg="http://www.w3.org/2000/svg">
  <defs
     id="defs1" />
  <sodipodi:namedview
     id="namedview1"
     pagecolor="#505050"
     bordercolor="#eeeeee"
     borderopacity="1"
     inkscape:showpageshadow="0"
     inkscape:pageopacity="0"
     inkscape:pagecheckerboard="0"
     inkscape:deskcolor="#505050"
     inkscape:zoom="47.375"
     inkscape:cx="10.015831"
     inkscape:cy="10.015831"
     inkscape:window-width="2560"
     inkscape:window-height="1351"
     inkscape:window-x="-9"
     inkscape:window-y="-9"
     inkscape:window-maximized="1"
     inkscape:current-layer="arrow-circle-right" />
  <path
     fill="#989898"
     d="m 6.29,10.71 a 1,1 0 0 1 -0.21,-0.33 1,1 0 0 1 0,-0.76 1,1 0 0 1 0.21,-0.33 l 3,-3 a 1.0040916,1.0040916 0 0 1 1.42,1.42 L 9.41,9 H 13 a 1,1 0 0 1 0,2 H 9.41 l 1.3,1.29 a 1,1 0 0 1 0,1.42 1,1 0 0 1 -1.42,0 z M 0,10 A 10,10 0 1 1 10,20 10,10 0 0 1 0,10 Z m 18,0 a 8,8 0 1 0 -8,8 8,8 0 0 0 8,-8 z"
     id="path1" />
</svg>
