<?xml version="1.0" encoding="UTF-8" standalone="no"?>
<!-- Created with Inkscape (http://www.inkscape.org/) -->

<svg
   width="2.4083612mm"
   height="2.435555mm"
   viewBox="0 0 2.4083612 2.435555"
   version="1.1"
   id="svg1"
   inkscape:version="1.3 (0e150ed6c4, 2023-07-21)"
   sodipodi:docname="icon-share.svg"
   xmlns:inkscape="http://www.inkscape.org/namespaces/inkscape"
   xmlns:sodipodi="http://sodipodi.sourceforge.net/DTD/sodipodi-0.dtd"
   xmlns="http://www.w3.org/2000/svg"
   xmlns:svg="http://www.w3.org/2000/svg">
  <sodipodi:namedview
     id="namedview1"
     pagecolor="#505050"
     bordercolor="#eeeeee"
     borderopacity="1"
     inkscape:showpageshadow="0"
     inkscape:pageopacity="0"
     inkscape:pagecheckerboard="0"
     inkscape:deskcolor="#505050"
     inkscape:document-units="mm"
     inkscape:zoom="32.412795"
     inkscape:cx="6.9262772"
     inkscape:cy="18.958563"
     inkscape:window-width="2560"
     inkscape:window-height="1351"
     inkscape:window-x="-9"
     inkscape:window-y="-9"
     inkscape:window-maximized="1"
     inkscape:current-layer="layer1" />
  <defs
     id="defs1" />
  <g
     inkscape:label="Layer 1"
     inkscape:groupmode="layer"
     id="layer1"
     transform="translate(-29.104166,-107.42086)">
    <path
       id="Path_199"
       data-name="Path 199"
       d="m 31.006776,108.7448 c -0.114743,-0.002 -0.22664,0.0357 -0.3175,0.10583 l -0.47625,-0.21166 0.502708,-0.23813 c 0.0776,0.0537 0.170219,0.0815 0.264583,0.0794 0.47147,0 0.707498,-0.56999 0.374159,-0.90333 -0.33334,-0.33334 -0.903325,-0.0973 -0.903325,0.37416 l -0.502709,0.23812 c -0.582083,-0.40569 -1.190624,0.46744 -0.608541,0.87313 0.09086,0.0701 0.202757,0.10739 0.3175,0.10583 0.08298,0.008 0.166367,-0.0105 0.238125,-0.0529 l 0.555625,0.26458 c 0.0737,0.7017 1.125045,0.59657 1.058333,-0.10583 -0.03251,-0.26872 -0.169986,-0.4372 -0.426777,-0.52279 l -0.05585,-0.0186 z"
       fill="#ed683b"
       sodipodi:nodetypes="cccccscccccccscc"
       style="stroke-width:0.264583" />
  </g>
</svg>
