<?xml version="1.0" encoding="UTF-8" standalone="no"?>
<svg
   id="Layer_1"
   data-name="Layer 1"
   width="480.64999"
   height="277.23834"
   viewBox="0 0 480.64997 277.23834"
   version="1.1"
   sodipodi:docname="bm-logo.svg"
   inkscape:version="1.3 (0e150ed6c4, 2023-07-21)"
   xmlns:inkscape="http://www.inkscape.org/namespaces/inkscape"
   xmlns:sodipodi="http://sodipodi.sourceforge.net/DTD/sodipodi-0.dtd"
   xmlns="http://www.w3.org/2000/svg"
   xmlns:svg="http://www.w3.org/2000/svg">
  <sodipodi:namedview
     id="namedview4"
     pagecolor="#505050"
     bordercolor="#eeeeee"
     borderopacity="1"
     inkscape:showpageshadow="0"
     inkscape:pageopacity="0"
     inkscape:pagecheckerboard="0"
     inkscape:deskcolor="#505050"
     inkscape:zoom="1.3505327"
     inkscape:cx="248.42049"
     inkscape:cy="266.19126"
     inkscape:window-width="2560"
     inkscape:window-height="1351"
     inkscape:window-x="-9"
     inkscape:window-y="-9"
     inkscape:window-maximized="1"
     inkscape:current-layer="Layer_1" />
  <defs
     id="defs1">
    <style
       id="style1">&#10;      .cls-1, .cls-2 {&#10;        fill: #0d316f;&#10;      }&#10;&#10;      .cls-3 {&#10;        fill: none;&#10;      }&#10;&#10;      .cls-4 {&#10;        fill: #a6a8ab;&#10;      }&#10;&#10;      .cls-4, .cls-2 {&#10;        fill-rule: evenodd;&#10;      }&#10;&#10;      .cls-5 {&#10;        clip-path: url(#clippath);&#10;      }&#10;    </style>
    <clipPath
       id="clippath">
      <rect
         class="cls-3"
         width="595.28003"
         height="841.89001"
         id="rect1"
         x="0"
         y="0" />
    </clipPath>
  </defs>
  <g
     class="cls-5"
     clip-path="url(#clippath)"
     id="g4"
     transform="translate(-48.83,-154.89165)">
    <path
       class="cls-1"
       d="m 443.68,286.94 h 4.55 c -0.04,-1.39 -0.24,-2.42 -0.58,-3.09 -0.35,-0.67 -0.89,-1 -1.64,-1 -0.83,0 -1.43,0.32 -1.79,0.97 -0.36,0.65 -0.54,1.68 -0.54,3.12 m 4.55,5.74 h 5.28 c -1.01,4.45 -3.52,6.68 -7.55,6.68 -2.52,0 -4.5,-0.96 -5.97,-2.87 -1.47,-1.91 -2.2,-4.55 -2.2,-7.91 0,-3.14 0.73,-5.64 2.2,-7.53 1.46,-1.89 3.41,-2.83 5.84,-2.83 1.46,0 2.87,0.46 4.22,1.37 1.35,0.91 2.33,2.13 2.95,3.64 0.62,1.51 0.96,3.89 1.04,7.13 h -10.46 c 0.09,2.95 0.91,4.42 2.46,4.42 0.53,0 1.01,-0.19 1.42,-0.58 0.42,-0.39 0.67,-0.89 0.76,-1.51 z m -13,0 v 5.17 c -1.49,1.01 -2.99,1.51 -4.5,1.51 -2.23,0 -4.02,-0.96 -5.36,-2.9 -1.35,-1.93 -2.02,-4.53 -2.02,-7.79 0,-3.09 0.69,-5.61 2.07,-7.55 1.38,-1.94 3.16,-2.91 5.35,-2.91 1.52,0 3.03,0.54 4.5,1.62 v 5.13 c -0.85,-0.45 -1.61,-0.67 -2.29,-0.67 -1,0 -1.82,0.4 -2.44,1.22 -0.62,0.81 -0.93,1.89 -0.93,3.25 0,1.36 0.3,2.54 0.91,3.36 0.61,0.82 1.43,1.23 2.46,1.23 0.63,0 1.38,-0.23 2.24,-0.67 z M 413.26,278.9 h 6.27 v 19.83 h -6.27 z m -0.17,-5.95 c 0,-0.92 0.32,-1.7 0.97,-2.35 0.65,-0.65 1.42,-0.97 2.32,-0.97 0.9,0 1.71,0.32 2.36,0.97 0.65,0.65 0.97,1.43 0.97,2.35 0,0.92 -0.32,1.68 -0.97,2.34 -0.65,0.66 -1.43,0.98 -2.36,0.98 -0.93,0 -1.66,-0.32 -2.31,-0.98 -0.65,-0.65 -0.99,-1.43 -0.99,-2.34 z m -20.22,5.95 h 6.12 l 2.48,10.74 h 0.09 l 2.48,-10.74 h 6.21 l -6.17,19.83 h -5.09 z m -8.1,0 v 3.32 h 0.08 c 1.49,-2.59 3.07,-3.89 4.72,-3.89 0.24,0 0.58,0.04 1.01,0.13 v 6.14 c -0.77,-0.13 -1.47,-0.19 -2.11,-0.19 -2.3,0 -3.45,1.49 -3.45,4.46 v 9.85 h -6.25 v -19.83 h 6 z m -20.02,8.04 h 4.55 c -0.04,-1.39 -0.24,-2.42 -0.58,-3.09 -0.34,-0.67 -0.89,-1 -1.64,-1 -0.83,0 -1.43,0.32 -1.79,0.97 -0.36,0.65 -0.54,1.68 -0.54,3.12 z m 4.54,5.74 h 5.28 c -1.01,4.45 -3.52,6.68 -7.55,6.68 -2.52,0 -4.5,-0.96 -5.97,-2.87 -1.47,-1.91 -2.2,-4.55 -2.2,-7.91 0,-3.14 0.73,-5.64 2.2,-7.53 1.46,-1.89 3.41,-2.83 5.84,-2.83 1.46,0 2.87,0.46 4.22,1.37 1.35,0.91 2.33,2.13 2.95,3.64 0.62,1.51 0.96,3.89 1.04,7.13 h -10.46 c 0.09,2.95 0.91,4.42 2.46,4.42 0.53,0 1.01,-0.19 1.42,-0.58 0.42,-0.39 0.67,-0.89 0.76,-1.51 z m -25.48,-0.35 c 2.14,1.26 3.69,1.9 4.63,1.9 0.52,0 0.95,-0.13 1.29,-0.4 0.35,-0.27 0.52,-0.58 0.52,-0.96 0,-0.4 -0.15,-0.7 -0.43,-0.88 -0.29,-0.18 -1.36,-0.69 -3.23,-1.51 -1.49,-0.66 -2.58,-1.44 -3.24,-2.34 -0.66,-0.9 -0.99,-2.02 -0.99,-3.36 0,-1.91 0.66,-3.48 1.97,-4.72 1.31,-1.24 2.99,-1.85 5.03,-1.85 2.04,0 4.41,0.79 7.29,2.37 l -2.41,4.47 c -1.87,-1.15 -3.4,-1.73 -4.59,-1.73 -1.04,0 -1.55,0.42 -1.55,1.25 0,0.4 0.19,0.75 0.57,1.04 0.38,0.29 1.07,0.63 2.08,0.99 1.88,0.66 3.25,1.45 4.11,2.37 0.85,0.92 1.29,2.08 1.29,3.49 0,2.02 -0.68,3.67 -2.03,4.96 -1.35,1.3 -3.08,1.94 -5.17,1.94 -2.27,0 -4.7,-0.8 -7.29,-2.39 l 2.16,-4.63 z m -23.46,-18.71 h 6.27 v 5.28 h 2.44 v 5.22 h -2.48 v 14.61 h -6.23 v -14.66 h -2.38 v -5.17 h 2.38 z m -21.62,-5.26 h 6.25 v 13.1 h 0.11 c 1.53,-2.14 3.31,-3.21 5.32,-3.21 1.43,0 2.55,0.47 3.35,1.41 0.79,0.94 1.19,2.27 1.19,3.97 v 15.09 h -6.27 v -12.1 c 0,-0.77 -0.15,-1.38 -0.46,-1.82 -0.31,-0.44 -0.74,-0.66 -1.29,-0.66 -1.3,0 -1.96,0.88 -1.96,2.65 v 11.92 h -6.25 v -30.37 z m -3.69,24.32 v 5.17 c -1.49,1.01 -2.99,1.51 -4.5,1.51 -2.23,0 -4.02,-0.96 -5.36,-2.9 -1.35,-1.93 -2.02,-4.53 -2.02,-7.79 0,-3.09 0.69,-5.61 2.07,-7.55 1.38,-1.94 3.16,-2.91 5.35,-2.91 1.52,0 3.03,0.54 4.5,1.62 v 5.13 c -0.85,-0.45 -1.61,-0.67 -2.29,-0.67 -1,0 -1.82,0.4 -2.44,1.22 -0.62,0.81 -0.93,1.89 -0.93,3.25 0,1.36 0.3,2.54 0.91,3.36 0.61,0.82 1.43,1.23 2.46,1.23 0.63,0 1.38,-0.23 2.24,-0.67 z m -21.77,-3.97 c 0,-3.3 -0.8,-4.94 -2.41,-4.94 -1.61,0 -2.44,1.64 -2.44,4.94 0,3.3 0.84,5.13 2.52,5.13 1.55,0 2.32,-1.71 2.32,-5.13 z m 0,10.02 v -2.6 h -0.09 c -0.76,1.12 -1.49,1.94 -2.21,2.47 -0.71,0.54 -1.54,0.8 -2.51,0.8 -1.88,0 -3.38,-0.96 -4.51,-2.89 -1.12,-1.92 -1.68,-4.54 -1.68,-7.84 0,-3.3 0.57,-5.71 1.7,-7.59 1.14,-1.88 2.63,-2.82 4.49,-2.82 0.99,0 1.83,0.24 2.52,0.74 0.69,0.49 1.41,1.29 2.16,2.38 h 0.09 v -2.48 h 6.28 v 19.83 h -6.23 z M 242.15,278.9 h 6.18 l 1.57,5.15 c 0.55,1.81 1.02,3.58 1.43,5.32 h 0.1 c 0.33,-1.65 0.6,-2.83 0.82,-3.55 l 2.09,-6.92 h 6.27 l -8.45,28 h -6.25 l 2.55,-8.42 -6.31,-19.57 z m -38.99,-8.94 h 8.26 c 1.18,6.21 2.1,11.55 2.78,16.02 l 0.71,-4.47 c 0.29,-1.74 0.6,-3.44 0.93,-5.08 l 1.27,-6.47 h 8.42 l 3.28,28.78 h -6.47 l -1.75,-19.79 -4.03,19.79 h -4.42 l -4.22,-19.83 -1.68,19.83 h -6.19 z m -17,22.54 -2.59,-3.58 c -1.39,1.05 -2.09,2.04 -2.09,2.97 0,0.52 0.18,0.94 0.55,1.27 0.37,0.32 0.83,0.48 1.39,0.48 0.76,0 1.67,-0.38 2.74,-1.15 z m -1.4,-12.04 c 1.55,-1.34 2.33,-2.55 2.33,-3.63 0,-0.5 -0.2,-0.92 -0.6,-1.26 -0.39,-0.34 -0.9,-0.51 -1.52,-0.51 -0.54,0 -1.02,0.21 -1.42,0.62 -0.4,0.4 -0.61,0.9 -0.61,1.47 0,0.84 0.61,1.94 1.82,3.3 z m 5.9,18.27 -1.1,-1.55 c -2.05,1.57 -4.15,2.35 -6.28,2.35 -2.27,0 -4.17,-0.71 -5.72,-2.13 -1.55,-1.42 -2.32,-3.18 -2.32,-5.28 0,-1.58 0.4,-2.93 1.23,-4.03 0.82,-1.11 2.09,-2.33 3.81,-3.67 -1.35,-1.68 -2.24,-3.08 -2.67,-4.21 -0.43,-1.12 -0.65,-2.24 -0.65,-3.38 0,-2.28 0.74,-4.14 2.2,-5.55 1.46,-1.41 3.38,-2.13 5.75,-2.13 2.2,0 4.09,0.74 5.67,2.2 1.58,1.47 2.38,3.22 2.38,5.26 0,1.45 -0.38,2.84 -1.13,4.17 -0.74,1.33 -1.99,2.75 -3.75,4.26 l 2.56,3.44 2.66,-2.56 3.75,4.72 -2.86,2.74 3.83,5.35 h -7.37 z M 161,286.9 v 6.23 c 1.65,-0.03 2.89,-0.28 3.72,-0.77 0.82,-0.48 1.24,-1.27 1.24,-2.38 0,-2.05 -1.47,-3.08 -4.42,-3.08 z m 0,-11.42 v 6.21 c 2.91,-0.07 4.37,-1.09 4.37,-3.04 0,-1.17 -0.35,-1.98 -1.04,-2.44 -0.69,-0.46 -1.8,-0.7 -3.33,-0.73 z m -6.53,-5.52 h 6.64 c 3.87,0 6.65,0.76 8.34,2.27 1.7,1.52 2.55,3.44 2.55,5.79 0,2.52 -1.24,4.56 -3.71,6.1 2.8,1.1 4.2,3.21 4.2,6.31 0,2.49 -0.87,4.49 -2.6,6.01 -1.74,1.52 -4.03,2.29 -6.88,2.29 h -8.54 v -28.78 z"
       id="path1" />
    <path
       class="cls-4"
       d="m 131.39,325.1 c -4.36,-16.06 -13.66,-31.75 -10.61,-56.04 27.89,-5.09 62.41,-7.96 91.1,-10.72 58.02,-5.58 183.83,-17.22 237.61,-2.29 17.51,4.86 23.04,7.46 28.96,21.63 4.58,-6.42 8.75,-14.24 13.16,-21.47 6.19,-10.15 37.66,-61.1 37.87,-64.63 -61.92,-6.25 -137.09,1.87 -196.66,13.25 -45.93,8.78 -85.39,17.78 -129.59,30.68 -12.55,3.66 -29.54,10.42 -41.1,12.57 13.45,-8.41 73.25,-30.46 91.24,-36.51 30.61,-10.3 68.74,-21.93 102.66,-26.68 -4.85,-4.41 -29.89,-14.64 -38.54,-14.99 -36.43,-1.47 -86.26,33.52 -114.62,44.63 12.45,-8 24.98,-15.4 38.66,-23.12 l 42,-21.69 c -29.86,-3.41 -26.17,-5.17 -48.68,10.22 -27.06,18.5 -48.94,36.39 -74.55,55.71 -8.88,6.7 -29.68,22.19 -39.21,27.21 3.14,-26.17 13.75,-44.1 33.64,-57.85 7.32,-5.06 1.11,-2.19 4.69,-7.97 3.36,5.27 12.12,8.38 21.36,7.54 9.12,-0.83 15.45,-5.85 19.15,-11.8 l -22.47,0.83 c -1.39,-3.97 -6.59,-10.92 -6.56,-13.53 0.03,-2.38 5.61,-10.89 7.18,-14.04 l 21.36,-1.79 c -6.7,-11.83 -34.99,-16.24 -45.65,9.96 -3.29,8.09 -13.46,11.29 -19.15,17.87 -29.9,34.54 -39.94,64.93 -18.97,109.73 l 15.72,23.32 z"
       id="path2" />
    <path
       class="cls-2"
       d="m 137.71,331.39 13.78,0.31 -7.11,5.18 c 42.39,-1.31 51.53,-4.57 89.12,11.46 23.96,10.22 44.77,23.01 70.36,32.45 45.62,16.83 103.53,10.87 138.81,-24.29 5.18,-5.16 8.08,-10.1 11.43,-13.55 -9.23,1.64 -20.32,9.73 -47.81,13.16 -36.79,4.58 -74.39,-2.64 -109.65,-11.5 -13.04,-3.28 -38.51,-8.43 -48.93,-12.8 l 209.72,-0.16 3.74,-20.35 -319.89,-0.08 -3.59,20.18 z"
       id="path3" />
    <path
       class="cls-2"
       d="M 227.33,385.08 C 174.79,396.04 135.06,360.91 116.9,334.35 105.67,317.93 96.03,298.82 93.94,274.49 c -2.96,-34.49 9.31,-46.26 16.9,-65.03 -6.3,2.39 -16.66,12.98 -20.41,18.09 -32.77,44.68 5.03,53.92 -41.6,72.88 1.63,24.31 4.25,21.89 24.13,28.68 L 74,323.66 c 34.33,13.25 14.18,41.51 12.84,51.56 8.24,6.44 12.58,12.15 19.49,18.85 l 21.12,-5.94 -7.6,-4.77 c 36.24,-4.54 36.45,37.4 39.56,40.97 2.55,2.93 19.17,6.9 23.7,7.8 3.59,-4.19 7.74,-10.63 12.93,-13.92 -1.82,-1.41 -0.06,-0.24 -2.81,-1.21 l -2.01,-0.58 c -0.33,-0.1 -0.7,-0.19 -0.99,-0.28 l -1.85,-0.66 c -0.15,-0.37 -0.62,-0.18 -0.88,-0.37 7.98,-7.69 14.42,-8.75 27.14,-2.83 11.11,5.17 11.06,12.47 18.38,18.65 l 21.73,-9.5 c -1.97,-10.47 -9.15,-16.2 -3.72,-24.77 6.19,-1.43 18.59,5.32 26.11,6.97 13.11,2.88 19.13,1.38 31.72,-0.26 l -5.82,-2.2 c -16.11,-3.05 -17.88,-3.28 -34.39,-11.88 -11.18,-5.82 -22.99,-14.52 -32.71,-21.08 -10.14,-6.84 -21.6,-14.35 -34.88,-18.87 -7.04,-2.4 -14.05,-4.11 -21.83,-4.7 -4.65,-0.35 -8.61,-0.27 -13.25,0.09 -3.83,0.3 -8.15,0.55 -10.91,2.6 7.37,2.1 15.06,2.36 22.93,4.79 13.19,4.07 44.37,25.79 49.32,32.96"
       id="path4" />
  </g>
</svg>
