<svg width="16" height="16" viewBox="0 0 16 16" fill="none" xmlns="http://www.w3.org/2000/svg">
<g id="Country" clip-path="url(#clip0_801_38860)">
<path id="Vector" d="M8 16C12.4183 16 16 12.4183 16 8C16 3.58172 12.4183 0 8 0C3.58172 0 0 3.58172 0 8C0 12.4183 3.58172 16 8 16Z" fill="#F0F0F0"/>
<path id="Vector_2" d="M7.30399 8C7.30399 8 2.34746 13.658 2.34277 13.6568C3.79046 15.1046 5.79049 16 7.99965 16C12.4179 16 15.9996 12.4183 15.9996 8H7.30399Z" fill="#D80027"/>
<path id="Vector_3" d="M2.34314 2.34326C-0.781047 5.46745 -0.781047 10.5328 2.34314 13.657C3.63417 12.366 4.87583 11.1243 8.00002 8.00014L2.34314 2.34326Z" fill="#0052B4"/>
</g>
<defs>
<clipPath id="clip0_801_38860">
<rect width="16" height="16" fill="white"/>
</clipPath>
</defs>
</svg>
