<svg width="16" height="16" viewBox="0 0 16 16" fill="none" xmlns="http://www.w3.org/2000/svg">
<g id="Country">
<g clip-path="url(#clip0_801_38831)">
<path id="Vector" d="M0.498047 10.7825C1.62839 13.8289 4.56073 15.9999 8.00045 15.9999C11.4402 15.9999 14.3725 13.8289 15.5029 10.7825L8.00045 10.0869L0.498047 10.7825Z" fill="#FFDA44"/>
<path id="Vector_2" d="M8.00045 0C4.56073 0 1.62839 2.171 0.498047 5.21741L8.00045 5.91303L15.5029 5.21737C14.3725 2.171 11.4402 0 8.00045 0Z" fill="black"/>
<path id="Vector_3" d="M0.497594 5.21729C0.176031 6.08394 0 7.02132 0 7.99988C0 8.97844 0.176031 9.91582 0.497594 10.7825H15.5024C15.824 9.91582 16 8.97844 16 7.99988C16 7.02132 15.824 6.08394 15.5024 5.21729H0.497594Z" fill="#D80027"/>
</g>
</g>
<defs>
<clipPath id="clip0_801_38831">
<rect width="16" height="16" rx="8" fill="white"/>
</clipPath>
</defs>
</svg>
