<svg width="32" height="32" viewBox="0 0 32 32" fill="none" xmlns="http://www.w3.org/2000/svg">
<g clip-path="url(#clip0_293_4370)">
<path d="M32 16C32 14.0429 31.6479 12.1681 31.0048 10.4348L16 9.73914L0.995188 10.4348C0.352063 12.1681 0 14.0429 0 16C0 17.9571 0.352063 19.8319 0.995188 21.5652L16 22.2609L31.0048 21.5653C31.6479 19.8319 32 17.9571 32 16Z" fill="#F0F0F0"/>
<path d="M16.0009 32C22.8803 32 28.745 27.658 31.0057 21.5652H0.996094C3.25678 27.658 9.12147 32 16.0009 32Z" fill="#0052B4"/>
<path d="M0.996094 10.4348H31.0058C28.745 4.342 22.8803 0 16.0009 0C9.12147 0 3.25678 4.342 0.996094 10.4348Z" fill="#D80027"/>
<path d="M20.1752 11.1305H17.3926L17.8564 7.65218L19.7114 6.26086L21.5665 7.65218V10.4348L20.1752 11.1305Z" fill="#338AF3"/>
<path d="M11.8268 11.1305H14.6094L14.1456 7.65218L12.2905 6.26086L10.4355 7.65218V10.4348L11.8268 11.1305Z" fill="#338AF3"/>
<path d="M17.8548 11.1305H14.1445V7.65218L15.9997 6.26086L17.8548 7.65218V11.1305Z" fill="#0052B4"/>
<path d="M10.4355 10.4348V18.0869C10.4355 19.909 11.3157 21.5294 12.6732 22.5452L13.6471 22.3015L14.8761 23.5379C15.2395 23.6128 15.6156 23.6522 16.0008 23.6522C16.3839 23.6522 16.7581 23.6133 17.1196 23.5391L18.5225 22.371L19.3283 22.5429C20.6852 21.5272 21.566 19.9085 21.566 18.0869V10.4348H10.4355Z" fill="#F0F0F0"/>
<path d="M10.4355 10.4348H12.6616V12.6609H10.4355V10.4348Z" fill="#D80027"/>
<path d="M14.8867 10.4348H17.1128V12.6609H14.8867V10.4348Z" fill="#D80027"/>
<path d="M19.3398 10.4348H21.5659V12.6609H19.3398V10.4348Z" fill="#D80027"/>
<path d="M12.6621 12.6609H14.8882V14.887H12.6621V12.6609Z" fill="#D80027"/>
<path d="M17.1133 12.6609H19.3393V14.887H17.1133V12.6609Z" fill="#D80027"/>
<path d="M10.4355 14.8862H12.6616V17.1123H10.4355V14.8862Z" fill="#D80027"/>
<path d="M12.6621 17.1124H14.8882V19.3385H12.6621V17.1124Z" fill="#D80027"/>
<path d="M14.8867 14.8862H17.1128V17.1123H14.8867V14.8862Z" fill="#D80027"/>
<path d="M19.3398 14.8862H21.5659V17.1123H19.3398V14.8862Z" fill="#D80027"/>
<path d="M17.1133 17.1124H19.3393V19.3385H17.1133V17.1124Z" fill="#D80027"/>
<path d="M14.8867 19.3384H17.1128V21.5644H14.8867V19.3384Z" fill="#D80027"/>
<path d="M12.6625 19.3386H10.5801C10.7711 20.1661 11.1466 20.9233 11.6615 21.5647H12.6625V19.3386Z" fill="#D80027"/>
<path d="M19.3398 21.5648H20.3408C20.8558 20.9234 21.2312 20.1662 21.4222 19.3387H19.3398V21.5648Z" fill="#D80027"/>
<path d="M12.6621 21.5647V22.536C13.3095 23.0232 14.0662 23.3725 14.8882 23.5401V21.5647H12.6621Z" fill="#D80027"/>
<path d="M17.1133 21.5647V23.5401C17.9353 23.3726 18.6919 23.0232 19.3393 22.536V21.5647H17.1133Z" fill="#D80027"/>
</g>
<defs>
<clipPath id="clip0_293_4370">
<rect width="32" height="32" fill="white"/>
</clipPath>
</defs>
</svg>
