<svg width="16" height="16" viewBox="0 0 16 16" fill="none" xmlns="http://www.w3.org/2000/svg">
<g id="Country" clip-path="url(#clip0_801_38852)">
<path id="Vector" d="M8 16C12.4183 16 16 12.4183 16 8C16 3.58172 12.4183 0 8 0C3.58172 0 0 3.58172 0 8C0 12.4183 3.58172 16 8 16Z" fill="#F0F0F0"/>
<path id="Vector_2" d="M15.5024 5.21734H6.95653V3.13037H2.78259V5.21734H0.497594C0.176031 6.08396 0 7.02137 0 7.99993C0 8.9785 0.176031 9.91587 0.497594 10.7825L8 11.4782L15.5024 10.7825C15.824 9.91587 16 8.9785 16 7.99993C16 7.02137 15.824 6.08396 15.5024 5.21734Z" fill="#0052B4"/>
<path id="Vector_3" d="M8.00045 16.0001C11.4402 16.0001 14.3725 13.8291 15.5029 10.7827H0.498047C1.62839 13.8291 4.56073 16.0001 8.00045 16.0001Z" fill="#D80027"/>
<path id="Vector_4" d="M2.78223 5.21744V5.91307C2.78223 7.5106 4.8692 8.00007 4.8692 8.00007C4.8692 8.00007 6.95616 7.5106 6.95616 5.91307V5.21744L6.26051 5.9131L4.8692 4.86963L3.47788 5.9131L2.78223 5.21744Z" fill="#F0F0F0"/>
</g>
<defs>
<clipPath id="clip0_801_38852">
<rect width="16" height="16" fill="white"/>
</clipPath>
</defs>
</svg>
