<?xml version="1.0" encoding="UTF-8"?>
<svg id="Layer_1" data-name="Layer 1" xmlns="http://www.w3.org/2000/svg" width="470.28" height="90.88" viewBox="0 0 470.28 90.88">
  <defs>
    <style>
      .cls-1, .cls-2 {
        fill: #0d316f;
      }

      .cls-3 {
        fill: #a6a8ab;
      }

      .cls-3, .cls-2 {
        fill-rule: evenodd;
      }
    </style>
  </defs>
  <path class="cls-1" d="M459.91,47.05h4.55c-.04-1.39-.24-2.42-.58-3.09-.35-.67-.89-1-1.64-1-.83,0-1.43.32-1.79.97-.36.65-.54,1.68-.54,3.12M464.46,52.79h5.28c-1.01,4.45-3.52,6.68-7.55,6.68-2.52,0-4.5-.96-5.97-2.87-1.47-1.91-2.2-4.55-2.2-7.91,0-3.14.73-5.64,2.2-7.53,1.46-1.89,3.41-2.83,5.84-2.83,1.46,0,2.87.46,4.22,1.37,1.35.91,2.33,2.13,2.95,3.64.62,1.51.96,3.89,1.04,7.13h-10.46c.09,2.95.91,4.42,2.46,4.42.53,0,1.01-.19,1.42-.58.42-.39.67-.89.76-1.51ZM451.46,52.79v5.17c-1.49,1.01-2.99,1.51-4.5,1.51-2.23,0-4.02-.96-5.36-2.9-1.35-1.93-2.02-4.53-2.02-7.79,0-3.09.69-5.61,2.07-7.55,1.38-1.94,3.16-2.91,5.35-2.91,1.52,0,3.03.54,4.5,1.62v5.13c-.85-.45-1.61-.67-2.29-.67-1,0-1.82.4-2.44,1.22-.62.81-.93,1.89-.93,3.25s.3,2.54.91,3.36c.61.82,1.43,1.23,2.46,1.23.63,0,1.38-.23,2.24-.67ZM429.5,39.02h6.27v19.83h-6.27v-19.83ZM429.32,33.06c0-.92.32-1.7.97-2.35.65-.65,1.42-.97,2.32-.97s1.71.32,2.36.97c.65.65.97,1.43.97,2.35s-.32,1.68-.97,2.34c-.65.66-1.43.98-2.36.98s-1.66-.32-2.31-.98c-.65-.65-.99-1.43-.99-2.34ZM409.1,39.02h6.12l2.48,10.74h.09l2.48-10.74h6.21l-6.17,19.83h-5.09l-6.12-19.83ZM401.01,39.02v3.32h.08c1.49-2.59,3.07-3.89,4.72-3.89.24,0,.58.04,1.01.13v6.14c-.77-.13-1.47-.19-2.11-.19-2.3,0-3.45,1.49-3.45,4.46v9.85h-6.25v-19.83h6ZM380.98,47.05h4.55c-.04-1.39-.24-2.42-.58-3.09-.34-.67-.89-1-1.64-1-.83,0-1.43.32-1.79.97-.36.65-.54,1.68-.54,3.12ZM385.53,52.79h5.28c-1.01,4.45-3.52,6.68-7.55,6.68-2.52,0-4.5-.96-5.97-2.87-1.47-1.91-2.2-4.55-2.2-7.91,0-3.14.73-5.64,2.2-7.53,1.46-1.89,3.41-2.83,5.84-2.83,1.46,0,2.87.46,4.22,1.37,1.35.91,2.33,2.13,2.95,3.64.62,1.51.96,3.89,1.04,7.13h-10.46c.09,2.95.91,4.42,2.46,4.42.53,0,1.01-.19,1.42-.58.42-.39.67-.89.76-1.51ZM360.04,52.44c2.14,1.26,3.69,1.9,4.63,1.9.52,0,.95-.13,1.29-.4.35-.27.52-.58.52-.96,0-.4-.15-.7-.43-.88-.29-.18-1.36-.69-3.23-1.51-1.49-.66-2.58-1.44-3.24-2.34-.66-.9-.99-2.02-.99-3.36,0-1.91.66-3.48,1.97-4.72,1.31-1.24,2.99-1.85,5.03-1.85s4.41.79,7.29,2.37l-2.41,4.47c-1.87-1.15-3.4-1.73-4.59-1.73-1.04,0-1.55.42-1.55,1.25,0,.4.19.75.57,1.04.38.29,1.07.63,2.08.99,1.88.66,3.25,1.45,4.11,2.37.85.92,1.29,2.08,1.29,3.49,0,2.02-.68,3.67-2.03,4.96-1.35,1.3-3.08,1.94-5.17,1.94-2.27,0-4.7-.8-7.29-2.39l2.16-4.63ZM336.59,33.73h6.27v5.28h2.44v5.22h-2.48v14.61h-6.23v-14.66h-2.38v-5.17h2.38v-5.28ZM314.96,28.47h6.25v13.1h.11c1.53-2.14,3.31-3.21,5.32-3.21,1.43,0,2.55.47,3.35,1.41.79.94,1.19,2.27,1.19,3.97v15.09h-6.27v-12.1c0-.77-.15-1.38-.46-1.82-.31-.44-.74-.66-1.29-.66-1.3,0-1.96.88-1.96,2.65v11.92h-6.25v-30.37ZM311.27,52.79v5.17c-1.49,1.01-2.99,1.51-4.5,1.51-2.23,0-4.02-.96-5.36-2.9-1.35-1.93-2.02-4.53-2.02-7.79,0-3.09.69-5.61,2.07-7.55,1.38-1.94,3.16-2.91,5.35-2.91,1.52,0,3.03.54,4.5,1.62v5.13c-.85-.45-1.61-.67-2.29-.67-1,0-1.82.4-2.44,1.22-.62.81-.93,1.89-.93,3.25s.3,2.54.91,3.36c.61.82,1.43,1.23,2.46,1.23.63,0,1.38-.23,2.24-.67ZM289.5,48.82c0-3.3-.8-4.94-2.41-4.94s-2.44,1.64-2.44,4.94.84,5.13,2.52,5.13c1.55,0,2.32-1.71,2.32-5.13ZM289.5,58.84v-2.6h-.09c-.76,1.12-1.49,1.94-2.21,2.47-.71.54-1.54.8-2.51.8-1.88,0-3.38-.96-4.51-2.89-1.12-1.92-1.68-4.54-1.68-7.84s.57-5.71,1.7-7.59c1.14-1.88,2.63-2.82,4.49-2.82.99,0,1.83.24,2.52.74.69.49,1.41,1.29,2.16,2.38h.09v-2.48h6.28v19.83h-6.23ZM258.38,39.02h6.18l1.57,5.15c.55,1.81,1.02,3.58,1.43,5.32h.1c.33-1.65.6-2.83.82-3.55l2.09-6.92h6.27l-8.45,28h-6.25l2.55-8.42-6.31-19.57ZM219.39,30.07h8.26c1.18,6.21,2.1,11.55,2.78,16.02l.71-4.47c.29-1.74.6-3.44.93-5.08l1.27-6.47h8.42l3.28,28.78h-6.47l-1.75-19.79-4.03,19.79h-4.42l-4.22-19.83-1.68,19.83h-6.19l3.11-28.78ZM202.39,52.61l-2.59-3.58c-1.39,1.05-2.09,2.04-2.09,2.97,0,.52.18.94.55,1.27.37.32.83.48,1.39.48.76,0,1.67-.38,2.74-1.15ZM200.99,40.57c1.55-1.34,2.33-2.55,2.33-3.63,0-.5-.2-.92-.6-1.26-.39-.34-.9-.51-1.52-.51-.54,0-1.02.21-1.42.62-.4.4-.61.9-.61,1.47,0,.84.61,1.94,1.82,3.3ZM206.89,58.84l-1.1-1.55c-2.05,1.57-4.15,2.35-6.28,2.35-2.27,0-4.17-.71-5.72-2.13-1.55-1.42-2.32-3.18-2.32-5.28,0-1.58.4-2.93,1.23-4.03.82-1.11,2.09-2.33,3.81-3.67-1.35-1.68-2.24-3.08-2.67-4.21-.43-1.12-.65-2.24-.65-3.38,0-2.28.74-4.14,2.2-5.55,1.46-1.41,3.38-2.13,5.75-2.13,2.2,0,4.09.74,5.67,2.2,1.58,1.47,2.38,3.22,2.38,5.26,0,1.45-.38,2.84-1.13,4.17-.74,1.33-1.99,2.75-3.75,4.26l2.56,3.44,2.66-2.56,3.75,4.72-2.86,2.74,3.83,5.35h-7.37ZM177.23,47.01v6.23c1.65-.03,2.89-.28,3.72-.77.82-.48,1.24-1.27,1.24-2.38,0-2.05-1.47-3.08-4.42-3.08h-.54ZM177.23,35.59v6.21c2.91-.07,4.37-1.09,4.37-3.04,0-1.17-.35-1.98-1.04-2.44-.69-.46-1.8-.7-3.33-.73ZM170.7,30.07h6.64c3.87,0,6.65.76,8.34,2.27,1.7,1.52,2.55,3.44,2.55,5.79,0,2.52-1.24,4.56-3.71,6.1,2.8,1.1,4.2,3.21,4.2,6.31,0,2.49-.87,4.49-2.6,6.01-1.74,1.52-4.03,2.29-6.88,2.29h-8.54v-28.78Z"/>
  <path class="cls-3" d="M27.06,55.8c-1.43-5.26-4.48-10.41-3.48-18.37,9.14-1.67,20.46-2.61,29.86-3.51,19.02-1.83,60.26-5.64,77.88-.75,5.74,1.59,7.55,2.45,9.49,7.09,1.5-2.1,2.87-4.67,4.31-7.04,2.03-3.33,12.34-20.03,12.41-21.18-20.3-2.05-44.93.61-64.46,4.34-15.05,2.88-27.99,5.83-42.48,10.06-4.11,1.2-9.68,3.42-13.47,4.12,4.41-2.76,24.01-9.98,29.91-11.97,10.03-3.38,22.53-7.19,33.65-8.74-1.59-1.45-9.8-4.8-12.63-4.91-11.94-.48-28.27,10.99-37.57,14.63,4.08-2.62,8.19-5.05,12.67-7.58l13.77-7.11c-9.79-1.12-8.58-1.7-15.96,3.35-8.87,6.06-16.04,11.93-24.44,18.26-2.91,2.2-9.73,7.27-12.85,8.92,1.03-8.58,4.51-14.45,11.03-18.96,2.4-1.66.36-.72,1.54-2.61,1.1,1.73,3.97,2.75,7,2.47,2.99-.27,5.06-1.92,6.28-3.87l-7.36.27c-.46-1.3-2.16-3.58-2.15-4.44,0-.78,1.84-3.57,2.35-4.6l7-.59c-2.2-3.88-11.47-5.32-14.97,3.26-1.08,2.65-4.41,3.7-6.28,5.86-9.8,11.32-13.09,21.28-6.22,35.97l5.15,7.64Z"/>
  <path class="cls-2" d="M29.13,57.86l4.52.1-2.33,1.7c13.89-.43,16.89-1.5,29.21,3.76,7.85,3.35,14.68,7.54,23.06,10.64,14.96,5.52,33.94,3.56,45.5-7.96,1.7-1.69,2.65-3.31,3.75-4.44-3.03.54-6.66,3.19-15.67,4.31-12.06,1.5-24.38-.86-35.94-3.77-4.28-1.08-12.62-2.76-16.04-4.2l68.74-.05,1.23-6.67-104.86-.03-1.18,6.62Z"/>
  <path class="cls-2" d="M58.51,75.46c-17.22,3.59-30.24-7.92-36.2-16.63-3.68-5.38-6.84-11.65-7.52-19.62-.97-11.31,3.05-15.16,5.54-21.32-2.07.78-5.46,4.25-6.69,5.93-10.74,14.65,1.65,17.68-13.64,23.89.53,7.97,1.39,7.17,7.91,9.4l.34-1.79c11.25,4.34,4.65,13.61,4.21,16.9,2.7,2.11,4.12,3.98,6.39,6.18l6.92-1.95-2.49-1.56c11.88-1.49,11.95,12.26,12.97,13.43.84.96,6.28,2.26,7.77,2.56,1.18-1.37,2.54-3.48,4.24-4.56-.6-.46-.02-.08-.92-.4l-.66-.19c-.11-.03-.23-.06-.32-.09l-.61-.22c-.05-.12-.2-.06-.29-.12,2.62-2.52,4.73-2.87,8.9-.93,3.64,1.7,3.63,4.09,6.02,6.11l7.12-3.11c-.65-3.43-3-5.31-1.22-8.12,2.03-.47,6.09,1.74,8.56,2.29,4.3.94,6.27.45,10.4-.08l-1.91-.72c-5.28-1-5.86-1.08-11.27-3.89-3.67-1.91-7.54-4.76-10.72-6.91-3.32-2.24-7.08-4.7-11.43-6.19-2.31-.79-4.61-1.35-7.16-1.54-1.52-.12-2.82-.09-4.34.03-1.26.1-2.67.18-3.57.85,2.42.69,4.94.77,7.52,1.57,4.32,1.34,14.54,8.45,16.16,10.8"/>
</svg>