<?xml version="1.0" encoding="UTF-8"?>
<svg id="Layer_1" data-name="Layer 1" xmlns="http://www.w3.org/2000/svg" width="299.58" height="38.54" viewBox="0 0 299.58 38.54">
  <defs>
    <style>
      .cls-1 {
        fill: #0d316f;
      }
    </style>
  </defs>
  <path class="cls-1" d="M289.21,18.58h4.55c-.04-1.39-.24-2.42-.58-3.09-.35-.67-.89-1-1.64-1-.83,0-1.43.32-1.79.97-.36.65-.54,1.68-.54,3.12M293.76,24.32h5.28c-1.01,4.45-3.52,6.68-7.55,6.68-2.52,0-4.5-.96-5.97-2.87-1.47-1.91-2.2-4.55-2.2-7.91,0-3.14.73-5.64,2.2-7.53,1.46-1.89,3.41-2.83,5.84-2.83,1.46,0,2.87.46,4.22,1.37,1.35.91,2.33,2.13,2.95,3.64.62,1.51.96,3.89,1.04,7.13h-10.46c.09,2.95.91,4.42,2.46,4.42.53,0,1.01-.19,1.42-.58.42-.39.67-.89.76-1.51ZM280.76,24.32v5.17c-1.49,1.01-2.99,1.51-4.5,1.51-2.23,0-4.02-.96-5.36-2.9-1.35-1.93-2.02-4.53-2.02-7.79,0-3.09.69-5.61,2.07-7.55,1.38-1.94,3.16-2.91,5.35-2.91,1.52,0,3.03.54,4.5,1.62v5.13c-.85-.45-1.61-.67-2.29-.67-1,0-1.82.4-2.44,1.22-.62.81-.93,1.89-.93,3.25s.3,2.54.91,3.36c.61.82,1.43,1.23,2.46,1.23.63,0,1.38-.23,2.24-.67ZM258.8,10.54h6.27v19.83h-6.27V10.54ZM258.62,4.59c0-.92.32-1.7.97-2.35.65-.65,1.42-.97,2.32-.97s1.71.32,2.36.97c.65.65.97,1.43.97,2.35s-.32,1.68-.97,2.34c-.65.66-1.43.98-2.36.98s-1.66-.32-2.31-.98c-.65-.65-.99-1.43-.99-2.34ZM238.4,10.54h6.12l2.48,10.74h.09l2.48-10.74h6.21l-6.17,19.83h-5.09l-6.12-19.83ZM230.31,10.54v3.32h.08c1.49-2.59,3.07-3.89,4.72-3.89.24,0,.58.04,1.01.13v6.14c-.77-.13-1.47-.19-2.11-.19-2.3,0-3.45,1.49-3.45,4.46v9.85h-6.25V10.54h6ZM210.28,18.58h4.55c-.04-1.39-.24-2.42-.58-3.09-.34-.67-.89-1-1.64-1-.83,0-1.43.32-1.79.97-.36.65-.54,1.68-.54,3.12ZM214.83,24.32h5.28c-1.01,4.45-3.52,6.68-7.55,6.68-2.52,0-4.5-.96-5.97-2.87-1.47-1.91-2.2-4.55-2.2-7.91,0-3.14.73-5.64,2.2-7.53,1.46-1.89,3.41-2.83,5.84-2.83,1.46,0,2.87.46,4.22,1.37,1.35.91,2.33,2.13,2.95,3.64.62,1.51.96,3.89,1.04,7.13h-10.46c.09,2.95.91,4.42,2.46,4.42.53,0,1.01-.19,1.42-.58.42-.39.67-.89.76-1.51ZM189.34,23.97c2.14,1.26,3.69,1.9,4.63,1.9.52,0,.95-.13,1.29-.4.35-.27.52-.58.52-.96,0-.4-.15-.7-.43-.88-.29-.18-1.36-.69-3.23-1.51-1.49-.66-2.58-1.44-3.24-2.34-.66-.9-.99-2.02-.99-3.36,0-1.91.66-3.48,1.97-4.72,1.31-1.24,2.99-1.85,5.03-1.85s4.41.79,7.29,2.37l-2.41,4.47c-1.87-1.15-3.4-1.73-4.59-1.73-1.04,0-1.55.42-1.55,1.25,0,.4.19.75.57,1.04.38.29,1.07.63,2.08.99,1.88.66,3.25,1.45,4.11,2.37.85.92,1.29,2.08,1.29,3.49,0,2.02-.68,3.67-2.03,4.96-1.35,1.3-3.08,1.94-5.17,1.94-2.27,0-4.7-.8-7.29-2.39l2.16-4.63ZM165.89,5.26h6.27v5.28h2.44v5.22h-2.48v14.61h-6.23v-14.66h-2.38v-5.17h2.38v-5.28ZM144.26,0h6.25v13.1h.11c1.53-2.14,3.31-3.21,5.32-3.21,1.43,0,2.55.47,3.35,1.41.79.94,1.19,2.27,1.19,3.97v15.09h-6.27v-12.1c0-.77-.15-1.38-.46-1.82-.31-.44-.74-.66-1.29-.66-1.3,0-1.96.88-1.96,2.65v11.92h-6.25V0ZM140.57,24.32v5.17c-1.49,1.01-2.99,1.51-4.5,1.51-2.23,0-4.02-.96-5.36-2.9-1.35-1.93-2.02-4.53-2.02-7.79,0-3.09.69-5.61,2.07-7.55,1.38-1.94,3.16-2.91,5.35-2.91,1.52,0,3.03.54,4.5,1.62v5.13c-.85-.45-1.61-.67-2.29-.67-1,0-1.82.4-2.44,1.22-.62.81-.93,1.89-.93,3.25s.3,2.54.91,3.36c.61.82,1.43,1.23,2.46,1.23.63,0,1.38-.23,2.24-.67ZM118.8,20.35c0-3.3-.8-4.94-2.41-4.94s-2.44,1.64-2.44,4.94.84,5.13,2.52,5.13c1.55,0,2.32-1.71,2.32-5.13ZM118.8,30.37v-2.6h-.09c-.76,1.12-1.49,1.94-2.21,2.47-.71.54-1.54.8-2.51.8-1.88,0-3.38-.96-4.51-2.89-1.12-1.92-1.68-4.54-1.68-7.84s.57-5.71,1.7-7.59c1.14-1.88,2.63-2.82,4.49-2.82.99,0,1.83.24,2.52.74.69.49,1.41,1.29,2.16,2.38h.09v-2.48h6.28v19.83h-6.23ZM87.68,10.54h6.18l1.57,5.15c.55,1.81,1.02,3.58,1.43,5.32h.1c.33-1.65.6-2.83.82-3.55l2.09-6.92h6.27l-8.45,28h-6.25l2.55-8.42-6.31-19.57ZM48.69,1.6h8.26c1.18,6.21,2.1,11.55,2.78,16.02l.71-4.47c.29-1.74.6-3.44.93-5.08l1.27-6.47h8.42l3.28,28.78h-6.47l-1.75-19.79-4.03,19.79h-4.42l-4.22-19.83-1.68,19.83h-6.19l3.11-28.78ZM31.69,24.14l-2.59-3.58c-1.39,1.05-2.09,2.04-2.09,2.97,0,.52.18.94.55,1.27.37.32.83.48,1.39.48.76,0,1.67-.38,2.74-1.15ZM30.29,12.1c1.55-1.34,2.33-2.55,2.33-3.63,0-.5-.2-.92-.6-1.26-.39-.34-.9-.51-1.52-.51-.54,0-1.02.21-1.42.62-.4.4-.61.9-.61,1.47,0,.84.61,1.94,1.82,3.3ZM36.19,30.37l-1.1-1.55c-2.05,1.57-4.15,2.35-6.28,2.35-2.27,0-4.17-.71-5.72-2.13-1.55-1.42-2.32-3.18-2.32-5.28,0-1.58.4-2.93,1.23-4.03.82-1.11,2.09-2.33,3.81-3.67-1.35-1.68-2.24-3.08-2.67-4.21-.43-1.12-.65-2.24-.65-3.38,0-2.28.74-4.14,2.2-5.55,1.46-1.41,3.38-2.13,5.75-2.13,2.2,0,4.09.74,5.67,2.2,1.58,1.47,2.38,3.22,2.38,5.26,0,1.45-.38,2.84-1.13,4.17-.74,1.33-1.99,2.75-3.75,4.26l2.56,3.44,2.66-2.56,3.75,4.72-2.86,2.74,3.83,5.35h-7.37ZM6.53,18.54v6.23c1.65-.03,2.89-.28,3.72-.77.82-.48,1.24-1.27,1.24-2.38,0-2.05-1.47-3.08-4.42-3.08h-.54ZM6.53,7.12v6.21c2.91-.07,4.37-1.09,4.37-3.04,0-1.17-.35-1.98-1.04-2.44-.69-.46-1.8-.7-3.33-.73ZM0,1.6h6.64c3.87,0,6.65.76,8.34,2.27,1.7,1.52,2.55,3.44,2.55,5.79,0,2.52-1.24,4.56-3.71,6.1,2.8,1.1,4.2,3.21,4.2,6.31,0,2.49-.87,4.49-2.6,6.01-1.74,1.52-4.03,2.29-6.88,2.29H0V1.6Z"/>
</svg>