<svg xmlns="http://www.w3.org/2000/svg" width="34.335" height="38.231" viewBox="0 0 34.335 38.231">
  <g id="Group_7" data-name="Group 7" transform="translate(-27.865 -1.976)">
    <path id="Path_17" data-name="Path 17" d="M140.762,9.958,123.81,9.915a1.792,1.792,0,0,0-1.8,1.788l-.075,33.4a1.792,1.792,0,0,0,1.788,1.8l23.012.056a1.792,1.792,0,0,0,1.8-1.788l.061-27.374Z" transform="translate(-86.995 -7.342)" fill="#fff"/>
    <path id="Path_18" data-name="Path 18" d="M373.311,18.415h6.061L371.519,10.6v6.021A1.792,1.792,0,0,0,373.311,18.415Z" transform="translate(-317.794 -7.977)" fill="#9fb1bd"/>
    <path id="Path_19" data-name="Path 19" d="M379.368,18.443H377.1l-5.585-5.561V10.63Z" transform="translate(-317.788 -8.003)" fill="#9fb1bd"/>
    <path id="Path_20" data-name="Path 20" d="M62.025,10.024,54.189,2.193a.6.6,0,0,0-.421-.175L36.817,1.976h-.005a2.393,2.393,0,0,0-2.39,2.384l-.007,3.022H33.259a5.391,5.391,0,1,0,0,10.782H34.39l-.044,19.591a2.393,2.393,0,0,0,2.384,2.4l23.012.056h.006a2.389,2.389,0,0,0,2.389-2.384L62.2,10.448A.6.6,0,0,0,62.025,10.024Zm-1.894-.183H55.517a1.2,1.2,0,0,1-1.195-1.195V4.062ZM33.259,16.97a4.2,4.2,0,1,1,0-8.393h1.153l0,1.951H33.223a2.208,2.208,0,1,0,0,4.417H34.4l0,2.025H33.259Zm7.766-3.22H35.6l0-2.027h5.426a.6.6,0,1,0,0-1.195H35.6l0-1.951h5.418a2.474,2.474,0,0,1,2.55,2.587A2.463,2.463,0,0,1,41.025,13.75Zm-6.625,0H33.223a1.014,1.014,0,1,1,0-2.027H34.4ZM60.591,38.664a1.185,1.185,0,0,1-.843.348h0l-23.012-.056a1.2,1.2,0,0,1-1.192-1.2c.013-5.99.039-17.382.051-22.814h5.435a3.616,3.616,0,0,0,3.741-3.781,3.616,3.616,0,0,0-3.744-3.782H35.609l.007-3.019a1.2,1.2,0,0,1,1.2-1.192h0l16.314.041V8.646a2.392,2.392,0,0,0,2.389,2.39H61L60.943,37.82A1.186,1.186,0,0,1,60.591,38.664Z" fill="#3a3d3f"/>
    <path id="Path_21" data-name="Path 21" d="M188.247,239.258h-7.466a.6.6,0,1,0,0,1.195h7.466a.6.6,0,1,0,0-1.195Zm-9.619,0h-5.1a.6.6,0,1,0,0,1.195h5.1a.6.6,0,1,0,0-1.195Zm12.69,0H190.4a.6.6,0,1,0,0,1.195h.918a.6.6,0,0,0,0-1.195Zm-14.718-5.1a.6.6,0,0,0,0,1.195h8.063a.6.6,0,1,0,0-1.195Zm-3.071,1.195h.918a.6.6,0,1,0,0-1.195h-.918a.6.6,0,1,0,0,1.195Zm17.789-1.195h-4.5a.6.6,0,1,0,0,1.195h4.5a.6.6,0,0,0,0-1.195Zm-2.473-4.506a.6.6,0,0,0-.6-.6h-7.466a.6.6,0,1,0,0,1.195h7.466A.6.6,0,0,0,188.845,229.65Zm-15.315.6h5.1a.6.6,0,0,0,0-1.195h-5.1a.6.6,0,1,0,0,1.195Zm17.789-1.195H190.4a.6.6,0,1,0,0,1.195h.918a.6.6,0,0,0,0-1.195ZM176.6,225.144h6.271a.6.6,0,0,0,0-1.195H176.6a.6.6,0,0,0,0,1.195Zm-3.071,0h.918a.6.6,0,1,0,0-1.195h-.918a.6.6,0,1,0,0,1.195Zm17.789-1.195h-6.294a.6.6,0,1,0,0,1.195h6.294a.6.6,0,0,0,0-1.195Z" transform="translate(-134.151 -205.269)" fill="#3a3d3f"/>
  </g>
</svg>
