<?xml version="1.0" encoding="UTF-8" standalone="no"?>
<svg
   width="216.47934"
   zoomAndPan="magnify"
   viewBox="0 0 162.35951 191.38324"
   height="255.17766"
   preserveAspectRatio="xMidYMid"
   version="1.0"
   id="svg39"
   sodipodi:docname="logo-sos-derma.svg"
   inkscape:version="1.3 (0e150ed6c4, 2023-07-21)"
   xmlns:inkscape="http://www.inkscape.org/namespaces/inkscape"
   xmlns:sodipodi="http://sodipodi.sourceforge.net/DTD/sodipodi-0.dtd"
   xmlns="http://www.w3.org/2000/svg"
   xmlns:svg="http://www.w3.org/2000/svg">
  <sodipodi:namedview
     id="namedview39"
     pagecolor="#505050"
     bordercolor="#eeeeee"
     borderopacity="1"
     inkscape:showpageshadow="0"
     inkscape:pageopacity="0"
     inkscape:pagecheckerboard="0"
     inkscape:deskcolor="#505050"
     inkscape:zoom="2.274"
     inkscape:cx="108.83905"
     inkscape:cy="150.1759"
     inkscape:window-width="2560"
     inkscape:window-height="1351"
     inkscape:window-x="-9"
     inkscape:window-y="-9"
     inkscape:window-maximized="1"
     inkscape:current-layer="svg39" />
  <defs
     id="defs3">
    <g
       id="g1" />
    <clipPath
       id="cb05bade8b">
      <path
         d="M 112,81 H 263 V 263 H 112 Z m 0,0"
         clip-rule="nonzero"
         id="path1" />
    </clipPath>
    <clipPath
       id="b39a56c2c7">
      <path
         d="M 81.433594,187.5 187.5,81.433594 293.56641,187.5 187.5,293.56641 Z m 0,0"
         clip-rule="nonzero"
         id="path2" />
    </clipPath>
    <clipPath
       id="215966b56f">
      <path
         d="M 81.433594,187.5 187.5,81.433594 293.56641,187.5 187.5,293.56641 Z m 0,0"
         clip-rule="nonzero"
         id="path3" />
    </clipPath>
  </defs>
  <rect
     style="fill:#ffffff;fill-rule:evenodd;stroke:#ffffff;stroke-width:0.797094"
     id="rect39"
     width="161.56241"
     height="190.58615"
     x="0.39854699"
     y="0.39854699" />
  <g
     clip-path="url(#cb05bade8b)"
     id="g6"
     transform="translate(-105.86242,-74.792102)"
     style="display:inline">
    <g
       clip-path="url(#b39a56c2c7)"
       id="g5"
       style="display:inline">
      <g
         clip-path="url(#215966b56f)"
         id="g4">
        <path
           fill="#ff9470"
           d="m 134.47266,134.46094 c -14.16797,14.16797 -21.96875,33.00781 -21.96875,53.03906 0,20.03125 7.80078,38.87109 21.96875,53.03906 14.16406,14.16406 33,21.96485 53.03515,21.96875 20.03516,0 38.8711,-7.80469 53.03906,-21.96875 14.16407,-14.16797 21.96485,-33.0039 21.96875,-53.03906 0,-20.03516 -7.80468,-38.87109 -21.96875,-53.03906 L 187.50781,81.425781 Z m 103.94921,2.125 c 13.60157,13.60156 21.08985,31.67968 21.08985,50.91406 0.004,19.23047 -7.48828,37.3125 -21.08985,50.91406 -13.59765,13.60156 -31.67968,21.08985 -50.91406,21.08985 -19.23047,0 -37.3125,-7.48829 -50.91406,-21.08985 C 122.99609,224.8125 115.50781,206.73047 115.50391,187.5 c 0.004,-19.23438 7.49218,-37.3125 21.08984,-50.91406 l 50.91406,-50.914065 z m 0,0"
           fill-opacity="1"
           fill-rule="nonzero"
           id="path4"
           style="display:inline" />
      </g>
    </g>
  </g>
  <g
     fill="#ff9470"
     fill-opacity="1"
     id="g9"
     transform="translate(-105.86242,-74.792102)">
    <g
       transform="translate(138.6914,175.42614)"
       id="g8">
      <g
         id="g7">
        <path
           d="M 9.40625,-11.453125 C 4.46875,-12.585938 2,-14.703125 2,-17.796875 c 0,-2.28125 0.796875,-3.988281 2.390625,-5.125 1.59375,-1.125 3.457031,-1.6875 5.59375,-1.6875 4.726563,0 7.535156,1.761719 8.421875,5.28125 H 15.6875 c -0.480469,-2.09375 -2.382812,-3.140625 -5.703125,-3.140625 -2.335937,0 -3.964844,0.695312 -4.890625,2.078125 -0.355469,0.523437 -0.53125,1.171875 -0.53125,1.953125 0,1.5 0.804688,2.65625 2.421875,3.46875 0.757813,0.398438 2.378906,0.917969 4.859375,1.5625 2.46875,0.648438 4.257812,1.359375 5.375,2.140625 1.550781,1.09375 2.328125,2.625 2.328125,4.59375 0,2.449219 -0.964844,4.304687 -2.890625,5.5625 -1.617188,1.0546875 -3.617188,1.578125 -6,1.578125 -5.367188,0 -8.480469,-2.046875 -9.34375,-6.140625 h 2.96875 c 0.445312,2.574219 2.570312,3.859375 6.375,3.859375 2.707031,0 4.597656,-0.75 5.671875,-2.25 0.425781,-0.59375 0.640625,-1.398438 0.640625,-2.421875 0,-1 -0.390625,-1.820313 -1.171875,-2.46875 -1.117187,-0.894531 -3.246094,-1.726563 -6.390625,-2.5 z m 0,0"
           id="path6" />
      </g>
    </g>
  </g>
  <g
     fill="#ff9470"
     fill-opacity="1"
     id="g12"
     transform="translate(-105.86242,-74.792102)">
    <g
       transform="translate(159.15365,175.42614)"
       id="g11">
      <g
         id="g10">
        <path
           d="M 4.75,0.359375 C 4.195312,0.359375 3.71875,0.15625 3.3125,-0.25 2.882812,-0.625 2.671875,-1.085938 2.671875,-1.640625 2.671875,-2.179688 2.875,-2.65625 3.28125,-3.0625 3.6875,-3.46875 4.175781,-3.671875 4.75,-3.671875 c 0.5625,0 1.054688,0.1875 1.484375,0.5625 0.40625,0.40625 0.609375,0.886719 0.609375,1.4375 C 6.84375,-1.097656 6.628906,-0.625 6.203125,-0.25 5.773438,0.15625 5.289062,0.359375 4.75,0.359375 Z m 0,0"
           id="path9" />
      </g>
    </g>
  </g>
  <g
     fill="#ff9470"
     fill-opacity="1"
     id="g15"
     transform="translate(-105.86242,-74.792102)">
    <g
       transform="translate(168.67181,175.42614)"
       id="g14">
      <g
         id="g13">
        <path
           d="m 24.03125,-12.1875 c 0,-2.738281 -0.976562,-5.082031 -2.921875,-7.03125 -1.949219,-1.945312 -4.304687,-2.921875 -7.0625,-2.921875 -2.730469,0 -5.070313,0.976563 -7.015625,2.921875 -1.960938,1.949219 -2.9375,4.292969 -2.9375,7.03125 0,2.75 0.976562,5.101562 2.9375,7.046875 1.945312,1.960937 4.285156,2.9375 7.015625,2.9375 2.757813,0 5.113281,-0.976563 7.0625,-2.9375 1.945313,-1.945313 2.921875,-4.296875 2.921875,-7.046875 z m 2.5,0 c 0,1.710938 -0.324219,3.324219 -0.96875,4.84375 -0.667969,1.523438 -1.558594,2.839844 -2.671875,3.953125 -1.136719,1.148437 -2.46875,2.039063 -4,2.671875 -1.523437,0.6679688 -3.136719,1 -4.84375,1 -1.710937,0 -3.3125,-0.3320312 -4.8125,-1 C 7.710938,-1.351562 6.394531,-2.242188 5.28125,-3.390625 4.132812,-4.503906 3.242188,-5.820312 2.609375,-7.34375 c -0.667969,-1.519531 -1,-3.132812 -1,-4.84375 0,-1.71875 0.332031,-3.335938 1,-4.859375 C 3.242188,-18.566406 4.132812,-19.882812 5.28125,-21 c 1.113281,-1.113281 2.429688,-2.003906 3.953125,-2.671875 1.5,-0.644531 3.101563,-0.96875 4.8125,-0.96875 1.707031,0 3.320313,0.324219 4.84375,0.96875 1.53125,0.667969 2.863281,1.558594 4,2.671875 1.113281,1.117188 2.003906,2.433594 2.671875,3.953125 0.644531,1.523437 0.96875,3.140625 0.96875,4.859375 z m 0,0"
           id="path12" />
      </g>
    </g>
  </g>
  <g
     fill="#ff9470"
     fill-opacity="1"
     id="g18"
     transform="translate(-105.86242,-74.792102)">
    <g
       transform="translate(196.79849,175.42614)"
       id="g17">
      <g
         id="g16">
        <path
           d="M 4.75,0.359375 C 4.195312,0.359375 3.71875,0.15625 3.3125,-0.25 2.882812,-0.625 2.671875,-1.085938 2.671875,-1.640625 2.671875,-2.179688 2.875,-2.65625 3.28125,-3.0625 3.6875,-3.46875 4.175781,-3.671875 4.75,-3.671875 c 0.5625,0 1.054688,0.1875 1.484375,0.5625 0.40625,0.40625 0.609375,0.886719 0.609375,1.4375 C 6.84375,-1.097656 6.628906,-0.625 6.203125,-0.25 5.773438,0.15625 5.289062,0.359375 4.75,0.359375 Z m 0,0"
           id="path15" />
      </g>
    </g>
  </g>
  <g
     fill="#ff9470"
     fill-opacity="1"
     id="g21"
     transform="translate(-105.86242,-74.792102)">
    <g
       transform="translate(206.31664,175.42614)"
       id="g20">
      <g
         id="g19">
        <path
           d="M 9.40625,-11.453125 C 4.46875,-12.585938 2,-14.703125 2,-17.796875 c 0,-2.28125 0.796875,-3.988281 2.390625,-5.125 1.59375,-1.125 3.457031,-1.6875 5.59375,-1.6875 4.726563,0 7.535156,1.761719 8.421875,5.28125 H 15.6875 c -0.480469,-2.09375 -2.382812,-3.140625 -5.703125,-3.140625 -2.335937,0 -3.964844,0.695312 -4.890625,2.078125 -0.355469,0.523437 -0.53125,1.171875 -0.53125,1.953125 0,1.5 0.804688,2.65625 2.421875,3.46875 0.757813,0.398438 2.378906,0.917969 4.859375,1.5625 2.46875,0.648438 4.257812,1.359375 5.375,2.140625 1.550781,1.09375 2.328125,2.625 2.328125,4.59375 0,2.449219 -0.964844,4.304687 -2.890625,5.5625 -1.617188,1.0546875 -3.617188,1.578125 -6,1.578125 -5.367188,0 -8.480469,-2.046875 -9.34375,-6.140625 h 2.96875 c 0.445312,2.574219 2.570312,3.859375 6.375,3.859375 2.707031,0 4.597656,-0.75 5.671875,-2.25 0.425781,-0.59375 0.640625,-1.398438 0.640625,-2.421875 0,-1 -0.390625,-1.820313 -1.171875,-2.46875 -1.117187,-0.894531 -3.246094,-1.726563 -6.390625,-2.5 z m 0,0"
           id="path18" />
      </g>
    </g>
  </g>
  <g
     fill="#ff9470"
     fill-opacity="1"
     id="g24"
     transform="translate(-105.86242,-74.792102)">
    <g
       transform="translate(226.77889,175.42614)"
       id="g23">
      <g
         id="g22">
        <path
           d="M 4.75,0.359375 C 4.195312,0.359375 3.71875,0.15625 3.3125,-0.25 2.882812,-0.625 2.671875,-1.085938 2.671875,-1.640625 2.671875,-2.179688 2.875,-2.65625 3.28125,-3.0625 3.6875,-3.46875 4.175781,-3.671875 4.75,-3.671875 c 0.5625,0 1.054688,0.1875 1.484375,0.5625 0.40625,0.40625 0.609375,0.886719 0.609375,1.4375 C 6.84375,-1.097656 6.628906,-0.625 6.203125,-0.25 5.773438,0.15625 5.289062,0.359375 4.75,0.359375 Z m 0,0"
           id="path21" />
      </g>
    </g>
  </g>
  <g
     fill="#545454"
     fill-opacity="1"
     id="g27"
     transform="translate(-105.86242,-74.792102)">
    <g
       transform="translate(138.16406,222.67614)"
       id="g26">
      <g
         id="g25">
        <path
           d="m 21.953125,-11 c 0.40625,0.1875 0.609375,0.480469 0.609375,0.875 0,0.09375 -0.03125,0.234375 -0.09375,0.421875 -0.898438,1.90625 -1.808594,3.59375 -2.734375,5.0625 -0.929687,1.460937 -1.9375,2.601563 -3.03125,3.421875 C 15.609375,-0.40625 14.351562,0 12.9375,0 c -1.074219,0 -1.914062,-0.351562 -2.515625,-1.0625 -0.605469,-0.707031 -0.90625,-1.707031 -0.90625,-3 -0.804687,1.136719 -1.6875,2.101562 -2.65625,2.890625 C 5.890625,-0.390625 4.820312,0 3.65625,0 2.351562,0 1.394531,-0.484375 0.78125,-1.453125 c -0.617188,-0.96875 -0.921875,-2.144531 -0.921875,-3.53125 0,-1.207031 0.1640625,-2.554687 0.5,-4.046875 0.34375,-1.5 0.828125,-3.003906 1.453125,-4.515625 0.632812,-1.507813 1.382812,-2.882813 2.25,-4.125 0.863281,-1.25 1.800781,-2.257813 2.8125,-3.03125 1.019531,-0.769531 2.085938,-1.15625 3.203125,-1.15625 1.039063,0 1.898437,0.21875 2.578125,0.65625 0.6875,0.429687 1.210938,0.996094 1.578125,1.703125 l 0.875,-2.40625 2.453125,-7.078125 c 0.15625,-0.394531 0.445312,-0.59375 0.875,-0.59375 0.40625,0 0.679688,0.15625 0.828125,0.46875 0.15625,0.304687 0.1875,0.578125 0.09375,0.828125 -0.0625,0.210938 -0.257813,0.777344 -0.578125,1.703125 -0.324219,0.929687 -0.714844,2.046875 -1.171875,3.359375 -0.460937,1.304688 -0.945313,2.679688 -1.453125,4.125 -0.511719,1.449219 -0.992188,2.828125 -1.4375,4.140625 -0.449219,1.3125 -0.835938,2.421875 -1.15625,3.328125 -0.324219,0.90625 -0.515625,1.46875 -0.578125,1.6875 -0.335937,1.054688 -0.671875,2.171875 -1.015625,3.359375 -0.335938,1.179687 -0.5,2.078125 -0.5,2.703125 0,0.554688 0.113281,1.015625 0.34375,1.390625 0.226562,0.367187 0.601562,0.546875 1.125,0.546875 1.113281,0 2.113281,-0.382812 3,-1.15625 0.894531,-0.769531 1.726562,-1.8125 2.5,-3.125 0.769531,-1.3125 1.507812,-2.75 2.21875,-4.3125 0.21875,-0.375 0.523438,-0.5625 0.921875,-0.5625 0.0625,0 0.1875,0.03125 0.375,0.09375 z m -18.34375,9.0625 c 0.914063,0 1.78125,-0.375 2.59375,-1.125 0.820313,-0.757812 1.578125,-1.734375 2.265625,-2.921875 0.695312,-1.1875 1.332031,-2.457031 1.90625,-3.8125 0.570312,-1.351563 1.085938,-2.617187 1.546875,-3.796875 0.21875,-0.488281 0.410156,-0.957031 0.578125,-1.40625 0.164062,-0.445312 0.328125,-0.851562 0.484375,-1.21875 0.03125,-0.09375 0.04687,-0.203125 0.04687,-0.328125 -0.03125,-1.070313 -0.308594,-1.898437 -0.828125,-2.484375 -0.523437,-0.59375 -1.230469,-0.890625 -2.125,-0.890625 -0.867187,0.03125 -1.699219,0.402344 -2.5,1.109375 -0.804687,0.710938 -1.554687,1.636719 -2.25,2.78125 -0.6875,1.136719 -1.292969,2.351562 -1.8125,3.640625 -0.523437,1.292969 -0.933594,2.5625 -1.234375,3.8125 -0.292969,1.25 -0.453125,2.339844 -0.484375,3.265625 0,1.011719 0.128906,1.828125 0.390625,2.453125 0.269531,0.617187 0.742188,0.921875 1.421875,0.921875 z m 0,0"
           id="path24" />
      </g>
    </g>
  </g>
  <g
     fill="#545454"
     fill-opacity="1"
     id="g30"
     transform="translate(-105.86242,-74.792102)"
     style="display:inline">
    <g
       transform="translate(158.03305,222.67614)"
       id="g29">
      <g
         id="g28">
        <path
           d="m 16.734375,-11 c 0.394531,0.1875 0.59375,0.496094 0.59375,0.921875 0,0.0625 -0.01172,0.125 -0.03125,0.1875 -0.01172,0.0625 -0.03125,0.125 -0.0625,0.1875 -1.511719,3.324219 -3.167969,5.773437 -4.96875,7.34375 C 10.460938,-0.785156 8.390625,0 6.046875,0 4.140625,0 2.644531,-0.582031 1.5625,-1.75 0.488281,-2.925781 -0.03125,-4.453125 0,-6.328125 0.0625,-7.503906 0.285156,-8.789062 0.671875,-10.1875 c 0.382813,-1.40625 0.90625,-2.789062 1.5625,-4.15625 0.664063,-1.375 1.4375,-2.628906 2.3125,-3.765625 0.882813,-1.144531 1.832031,-2.054687 2.84375,-2.734375 1.019531,-0.675781 2.066406,-1.015625 3.140625,-1.015625 1.175781,0 2.125,0.292969 2.84375,0.875 0.726562,0.585937 1.09375,1.433594 1.09375,2.546875 0,1.230469 -0.382812,2.339844 -1.140625,3.328125 -0.75,0.980469 -1.734375,1.851563 -2.953125,2.609375 -1.21875,0.75 -2.523438,1.390625 -3.90625,1.921875 -1.386719,0.523437 -2.726562,0.933594 -4.015625,1.234375 -0.3125,1.085938 -0.484375,2.105469 -0.515625,3.0625 -0.03125,1.324219 0.304688,2.367188 1.015625,3.125 0.707031,0.75 1.753906,1.15625 3.140625,1.21875 1.914062,0.03125 3.628906,-0.640625 5.140625,-2.015625 1.507813,-1.375 2.910156,-3.550781 4.203125,-6.53125 0.125,-0.25 0.304688,-0.421875 0.546875,-0.515625 0.25,-0.09375 0.5,-0.09375 0.75,0 z M 3.1875,-11.546875 c 0.957031,-0.3125 1.972656,-0.679687 3.046875,-1.109375 1.082031,-0.4375 2.097656,-0.9375 3.046875,-1.5 0.957031,-0.570312 1.738281,-1.210938 2.34375,-1.921875 0.601562,-0.707031 0.90625,-1.492187 0.90625,-2.359375 0,-0.613281 -0.203125,-1.015625 -0.609375,-1.203125 -0.398437,-0.1875 -0.859375,-0.28125 -1.390625,-0.28125 -0.792969,0 -1.554688,0.265625 -2.28125,0.796875 -0.730469,0.523438 -1.414062,1.203125 -2.046875,2.046875 -0.625,0.84375 -1.195313,1.757813 -1.703125,2.734375 -0.5,0.96875 -0.9375,1.902344 -1.3125,2.796875 z m 0,0"
           id="path27" />
      </g>
    </g>
  </g>
  <g
     fill="#545454"
     fill-opacity="1"
     id="g33"
     transform="translate(-105.86242,-74.792102)">
    <g
       transform="translate(172.68065,222.67614)"
       id="g32">
      <g
         id="g31">
        <path
           d="m 19.09375,-11 c 0.394531,0.1875 0.59375,0.480469 0.59375,0.875 0,0.09375 -0.03125,0.234375 -0.09375,0.421875 -1.511719,3.449219 -2.90625,5.929687 -4.1875,7.4375 C 14.132812,-0.753906 12.710938,0 11.140625,0 H 11.09375 C 10.007812,0 9.191406,-0.359375 8.640625,-1.078125 8.085938,-1.804688 7.8125,-2.738281 7.8125,-3.875 c 0,-0.894531 0.148438,-1.898438 0.453125,-3.015625 0.09375,-0.363281 0.269531,-0.960937 0.53125,-1.796875 0.269531,-0.832031 0.554687,-1.722656 0.859375,-2.671875 0.3125,-0.957031 0.601562,-1.828125 0.875,-2.609375 0.28125,-0.789062 0.46875,-1.3125 0.5625,-1.5625 -1.167969,-0.394531 -2.054688,-0.691406 -2.65625,-0.890625 -0.605469,-0.207031 -1.070312,-0.378906 -1.390625,-0.515625 -0.324219,-0.132812 -0.65625,-0.28125 -1,-0.4375 -0.023437,0.125 -0.089844,0.3125 -0.203125,0.5625 -0.105469,0.242188 -0.296875,0.664062 -0.578125,1.265625 -0.273437,0.59375 -0.679687,1.480469 -1.21875,2.65625 -0.542969,1.167969 -1.277344,2.765625 -2.203125,4.796875 -0.179688,0.375 -0.453125,0.5625 -0.828125,0.5625 -0.125,0 -0.28125,-0.03125 -0.46875,-0.09375 C 0.179688,-7.84375 0,-8.132812 0,-8.5 0,-8.59375 0.03125,-8.734375 0.09375,-8.921875 l 3.703125,-8.046875 0.546875,-1.375 c -0.679688,-0.5 -1.242188,-1.054688 -1.6875,-1.671875 -0.449219,-0.613281 -0.671875,-1.351563 -0.671875,-2.21875 0,-0.945313 0.285156,-1.679687 0.859375,-2.203125 0.570312,-0.53125 1.226562,-0.796875 1.96875,-0.796875 0.820312,0 1.472656,0.277344 1.953125,0.828125 0.476563,0.554688 0.71875,1.292969 0.71875,2.21875 0,0.375 -0.058594,0.742188 -0.171875,1.09375 -0.105469,0.355469 -0.292969,0.976562 -0.5625,1.859375 0.644531,0.3125 1.335938,0.601563 2.078125,0.859375 0.738281,0.261719 1.445313,0.515625 2.125,0.765625 0.34375,0.09375 0.660156,0.1875 0.953125,0.28125 0.289062,0.09375 0.554688,0.1875 0.796875,0.28125 0.25,0.08594 0.425781,0.261719 0.53125,0.53125 0.113281,0.261719 0.125,0.527344 0.03125,0.796875 -0.15625,0.375 -0.390625,1.011719 -0.703125,1.90625 -0.304688,0.886719 -0.625,1.851562 -0.96875,2.890625 -0.335938,1.03125 -0.640625,1.96875 -0.921875,2.8125 -0.273437,0.84375 -0.4375,1.40625 -0.5,1.6875 -0.125,0.492187 -0.21875,0.9375 -0.28125,1.34375 C 9.828125,-4.679688 9.78125,-4.28125 9.75,-3.875 c 0,0.585938 0.109375,1.054688 0.328125,1.40625 0.21875,0.355469 0.570313,0.53125 1.0625,0.53125 1.132813,0 2.195313,-0.675781 3.1875,-2.03125 0.988281,-1.363281 2.144531,-3.535156 3.46875,-6.515625 0.21875,-0.40625 0.507813,-0.609375 0.875,-0.609375 0.09375,0 0.234375,0.03125 0.421875,0.09375 z M 5.546875,-22.234375 c 0,-0.394531 -0.078125,-0.671875 -0.234375,-0.828125 -0.15625,-0.15625 -0.324219,-0.234375 -0.5,-0.234375 -0.59375,0 -0.890625,0.292969 -0.890625,0.875 0,0.835937 0.367187,1.542969 1.109375,2.125 0.125,-0.332031 0.238281,-0.679687 0.34375,-1.046875 0.113281,-0.375 0.171875,-0.671875 0.171875,-0.890625 z m 0,0"
           id="path30" />
      </g>
    </g>
  </g>
  <g
     fill="#545454"
     fill-opacity="1"
     id="g36"
     transform="translate(-105.86242,-74.792102)">
    <g
       transform="translate(189.68481,222.67614)"
       id="g35">
      <g
         id="g34">
        <path
           d="m 31.203125,-10.125 c 0,0.03125 -0.04687,0.21875 -0.140625,0.5625 -0.4375,0.949219 -0.929688,1.980469 -1.46875,3.09375 -0.53125,1.105469 -1.136719,2.152344 -1.8125,3.140625 -0.679688,0.992187 -1.445312,1.792969 -2.296875,2.40625 C 24.640625,-0.304688 23.707031,0 22.6875,0 21.550781,0 20.703125,-0.359375 20.140625,-1.078125 19.585938,-1.804688 19.3125,-2.738281 19.3125,-3.875 c 0,-1.050781 0.179688,-2.175781 0.546875,-3.375 0.375,-1.207031 0.789063,-2.425781 1.25,-3.65625 0.46875,-1.226562 0.882813,-2.410156 1.25,-3.546875 0.375,-1.144531 0.5625,-2.195313 0.5625,-3.15625 0,-0.675781 -0.171875,-1.242187 -0.515625,-1.703125 -0.335938,-0.46875 -0.964844,-0.703125 -1.890625,-0.703125 -0.679687,0 -1.386719,0.335937 -2.125,1 -0.742187,0.65625 -1.476563,1.496094 -2.203125,2.515625 -0.71875,1.023438 -1.367188,2.09375 -1.9375,3.21875 -0.5625,1.125 -1.015625,2.148438 -1.359375,3.0625 -0.03125,0.0625 -0.15625,0.417969 -0.375,1.0625 -0.210937,0.648438 -0.46875,1.429688 -0.78125,2.34375 C 11.429688,-5.90625 11.125,-5 10.8125,-4.09375 10.507812,-3.1875 10.253906,-2.429688 10.046875,-1.828125 9.847656,-1.222656 9.75,-0.9375 9.75,-0.96875 c -0.15625,0.429688 -0.464844,0.640625 -0.921875,0.640625 -0.34375,0 -0.617187,-0.132813 -0.8125,-0.40625 C 7.816406,-1.015625 7.78125,-1.3125 7.90625,-1.625 c 0,-0.019531 0.101562,-0.347656 0.3125,-0.984375 0.21875,-0.632813 0.476562,-1.40625 0.78125,-2.3125 0.3125,-0.90625 0.625,-1.8125 0.9375,-2.71875 0.3125,-0.914063 0.570312,-1.679687 0.78125,-2.296875 0.21875,-0.613281 0.328125,-0.9375 0.328125,-0.96875 0.488281,-1.414062 0.882813,-2.65625 1.1875,-3.71875 0.3125,-1.0625 0.46875,-1.992188 0.46875,-2.796875 0,-0.863281 -0.179687,-1.507813 -0.53125,-1.9375 -0.355469,-0.4375 -0.945313,-0.65625 -1.765625,-0.65625 -0.65625,0 -1.324219,0.324219 -2,0.96875 -0.679688,0.648437 -1.355469,1.449219 -2.03125,2.40625 -0.21875,0.3125 -0.523438,0.820313 -0.90625,1.515625 -0.375,0.6875 -0.78125,1.429688 -1.21875,2.21875 -0.429688,0.78125 -0.8125,1.492188 -1.15625,2.125 C 2.757812,-10.15625 2.5625,-9.75 2.5,-9.5625 l -3.140625,8.921875 c -0.09375,0.273437 -0.265625,0.464844 -0.515625,0.578125 -0.25,0.1015625 -0.492188,0.125 -0.734375,0.0625 -0.25,-0.09375 -0.4375,-0.257812 -0.5625,-0.5 C -2.578125,-0.75 -2.59375,-1 -2.5,-1.25 c 1.179688,-3.320312 2.367188,-6.644531 3.5625,-9.96875 1.195312,-3.332031 2.382812,-6.664062 3.5625,-10 0.15625,-0.425781 0.460938,-0.640625 0.921875,-0.640625 0.332031,0 0.597656,0.140625 0.796875,0.421875 0.207031,0.273438 0.25,0.5625 0.125,0.875 -0.1875,0.398438 -0.339844,0.8125 -0.453125,1.25 0.675781,-0.800781 1.382813,-1.441406 2.125,-1.921875 0.738281,-0.476563 1.492187,-0.71875 2.265625,-0.71875 1.382812,0 2.4375,0.402344 3.15625,1.203125 0.726562,0.804688 1.09375,1.820312 1.09375,3.046875 0.675781,-1.070313 1.550781,-2.046875 2.625,-2.921875 1.082031,-0.882812 2.160156,-1.328125 3.234375,-1.328125 1.664063,0 2.804687,0.417969 3.421875,1.25 0.613281,0.835937 0.921875,1.867187 0.921875,3.09375 0,1.105469 -0.179687,2.25 -0.53125,3.4375 -0.355469,1.1875 -0.773437,2.386719 -1.25,3.59375 -0.46875,1.199219 -0.882813,2.371094 -1.234375,3.515625 -0.355469,1.136719 -0.53125,2.199219 -0.53125,3.1875 0,1.292969 0.457031,1.9375 1.375,1.9375 1.144531,0 2.222656,-0.695312 3.234375,-2.09375 1.019531,-1.40625 2.144531,-3.554688 3.375,-6.453125 0.15625,-0.40625 0.46875,-0.609375 0.9375,-0.609375 0.238281,0 0.457031,0.105469 0.65625,0.3125 0.207031,0.199219 0.3125,0.417969 0.3125,0.65625 z m 0,0"
           id="path33" />
      </g>
    </g>
  </g>
  <g
     fill="#545454"
     fill-opacity="1"
     id="g39"
     transform="translate(-105.86242,-74.792102)">
    <g
       transform="translate(218.1945,222.67614)"
       id="g38">
      <g
         id="g37">
        <path
           d="m 20.703125,-11 c 0.40625,0.1875 0.609375,0.480469 0.609375,0.875 0,0.09375 -0.03125,0.234375 -0.09375,0.421875 L 21.17188,-9.5625 c -0.4375,0.949219 -0.929687,1.980469 -1.46875,3.09375 -0.53125,1.105469 -1.148437,2.152344 -1.84375,3.140625 -0.6875,0.992187 -1.449219,1.792969 -2.28125,2.40625 C 14.742188,-0.304688 13.800781,0 12.75,0 11.644531,0 10.8125,-0.359375 10.25,-1.078125 9.695312,-1.804688 9.421875,-2.738281 9.421875,-3.875 7.578125,-1.289062 5.65625,0 3.65625,0 2.351562,0 1.394531,-0.484375 0.78125,-1.453125 c -0.617188,-0.96875 -0.921875,-2.144531 -0.921875,-3.53125 0,-1.207031 0.1757812,-2.554687 0.53125,-4.046875 0.351563,-1.5 0.84375,-3.003906 1.46875,-4.515625 0.632813,-1.507813 1.375,-2.882813 2.21875,-4.125 0.851563,-1.25 1.785156,-2.257813 2.796875,-3.03125 1.019531,-0.769531 2.085938,-1.15625 3.203125,-1.15625 2,0 3.398437,0.820313 4.203125,2.453125 0.15625,-0.40625 0.289062,-0.773438 0.40625,-1.109375 0.125,-0.34375 0.25,-0.664063 0.375,-0.96875 0.15625,-0.40625 0.460938,-0.609375 0.921875,-0.609375 0.375,0 0.644531,0.148438 0.8125,0.4375 0.164063,0.292969 0.191406,0.578125 0.07813,0.859375 l -2.3125,6.1875 c -0.835938,2.34375 -1.574219,4.464844 -2.21875,6.359375 -0.648438,1.898438 -0.96875,3.355469 -0.96875,4.375 0,1.292969 0.457031,1.9375 1.375,1.9375 0.707031,0 1.378906,-0.269531 2.015625,-0.8125 0.632813,-0.539062 1.226563,-1.238281 1.78125,-2.09375 0.550781,-0.863281 1.066406,-1.78125 1.546875,-2.75 0.476562,-0.976562 0.898438,-1.898438 1.265625,-2.765625 l 0.04687,-0.125 c 0.21875,-0.40625 0.515625,-0.609375 0.890625,-0.609375 0.08203,0 0.21875,0.03125 0.40625,0.09375 z m -17.09375,9.0625 c 0.914063,0 1.78125,-0.375 2.59375,-1.125 0.820313,-0.757812 1.578125,-1.734375 2.265625,-2.921875 0.695312,-1.1875 1.332031,-2.457031 1.90625,-3.8125 0.570312,-1.351563 1.085938,-2.617187 1.546875,-3.796875 l 1.109375,-2.953125 c -0.03125,-1.070313 -0.324219,-1.898437 -0.875,-2.484375 -0.554688,-0.59375 -1.246094,-0.890625 -2.078125,-0.890625 -0.867187,0.03125 -1.699219,0.402344 -2.5,1.109375 -0.804687,0.710938 -1.554687,1.625 -2.25,2.75 -0.6875,1.125 -1.292969,2.34375 -1.8125,3.65625 -0.523437,1.304688 -0.933594,2.578125 -1.234375,3.828125 -0.292969,1.25 -0.453125,2.339844 -0.484375,3.265625 0,1.011719 0.128906,1.828125 0.390625,2.453125 0.269531,0.617187 0.742188,0.921875 1.421875,0.921875 z m 0,0"
           id="path36" />
      </g>
    </g>
  </g>
</svg>
