<?xml version="1.0" encoding="UTF-8" standalone="no"?>
<!-- Created with Inkscape (http://www.inkscape.org/) -->

<svg
   width="102.30556mm"
   height="206.02225mm"
   viewBox="0 0 102.30556 206.02225"
   version="1.1"
   id="svg1"
   sodipodi:docname="bg-1.svg"
   xml:space="preserve"
   inkscape:version="1.3 (0e150ed6c4, 2023-07-21)"
   xmlns:inkscape="http://www.inkscape.org/namespaces/inkscape"
   xmlns:sodipodi="http://sodipodi.sourceforge.net/DTD/sodipodi-0.dtd"
   xmlns="http://www.w3.org/2000/svg"
   xmlns:svg="http://www.w3.org/2000/svg"><sodipodi:namedview
     id="namedview1"
     pagecolor="#505050"
     bordercolor="#eeeeee"
     borderopacity="1"
     inkscape:showpageshadow="0"
     inkscape:pageopacity="0"
     inkscape:pagecheckerboard="0"
     inkscape:deskcolor="#505050"
     inkscape:document-units="mm"
     inkscape:zoom="1.0128998"
     inkscape:cx="-205.35101"
     inkscape:cy="345.04894"
     inkscape:window-width="2560"
     inkscape:window-height="1351"
     inkscape:window-x="-9"
     inkscape:window-y="-9"
     inkscape:window-maximized="1"
     inkscape:current-layer="layer1" /><defs
     id="defs1" /><g
     inkscape:label="Layer 1"
     inkscape:groupmode="layer"
     id="layer1"
     transform="translate(-105.57546,-53.586509)"><path
       style="fill:#fffff5"
       d="m 105.57546,256.98811 c 0,-2.88172 0.0752,-3.01908 2.60786,-4.76157 5.68629,-3.91227 13.63727,-5.93964 21.91019,-5.58673 4.75694,0.20293 5.80345,0.58207 12.86648,4.66134 7.20917,4.16368 12.04524,6.41478 15.94666,7.42288 l 3.28964,0.85003 -28.31042,0.0173 -28.31041,0.0173 z m 62.40345,2.23907 c 3.30548,-0.64916 6.01775,-2.30203 9.38802,-5.72111 10.85864,-11.01591 18.76076,-26.87225 24.12124,-48.40149 2.9159,-11.71112 5.05646,-27.03042 6.0138,-43.03889 0.15374,-2.57093 0.29728,17.85216 0.32665,46.47847 l 0.0524,51.06459 -20.72569,-0.0387 c -12.68833,-0.0237 -20.12489,-0.15664 -19.17641,-0.34291 z m 39.24994,-140.11219 c -0.92348,-17.25587 -2.81043,-34.657613 -5.72787,-52.823348 -1.04411,-6.501206 -1.05136,-6.525388 -2.35911,-7.864641 -2.16895,-2.221205 -5.39055,-3.48408 -11.01641,-4.31846 -2.79064,-0.413883 -2.20952,-0.447409 8.37847,-0.48338 l 11.37708,-0.03865 v 36.86528 c 0,20.275909 -0.048,36.865279 -0.10661,36.865279 -0.0586,0 -0.30413,-3.69093 -0.54555,-8.20208 z M 105.57546,58.878176 v -5.291667 l 32.19097,0.0593 c 17.70503,0.03262 31.55597,0.111006 30.77986,0.174198 -17.38905,1.415844 -36.15339,4.438689 -57.85022,9.319388 -2.51942,0.566745 -4.70224,1.030445 -4.85069,1.030445 -0.14846,0 -0.26992,-2.38125 -0.26992,-5.291667 z"
       id="path1" /></g></svg>
