<?xml version="1.0" encoding="UTF-8" standalone="no"?>
<!-- Created with Inkscape (http://www.inkscape.org/) -->

<svg
   width="4.769021mm"
   height="4.7690282mm"
   viewBox="0 0 4.769021 4.7690282"
   version="1.1"
   id="svg1"
   inkscape:version="1.3 (0e150ed6c4, 2023-07-21)"
   sodipodi:docname="icon-x-white.svg"
   xmlns:inkscape="http://www.inkscape.org/namespaces/inkscape"
   xmlns:sodipodi="http://sodipodi.sourceforge.net/DTD/sodipodi-0.dtd"
   xmlns="http://www.w3.org/2000/svg"
   xmlns:svg="http://www.w3.org/2000/svg">
  <sodipodi:namedview
     id="namedview1"
     pagecolor="#505050"
     bordercolor="#eeeeee"
     borderopacity="1"
     inkscape:showpageshadow="0"
     inkscape:pageopacity="0"
     inkscape:pagecheckerboard="0"
     inkscape:deskcolor="#505050"
     inkscape:document-units="mm"
     inkscape:zoom="1.0128998"
     inkscape:cx="140.19155"
     inkscape:cy="107.11819"
     inkscape:window-width="2560"
     inkscape:window-height="1351"
     inkscape:window-x="-9"
     inkscape:window-y="-9"
     inkscape:window-maximized="1"
     inkscape:current-layer="layer1" />
  <defs
     id="defs1" />
  <g
     inkscape:label="Layer 1"
     inkscape:groupmode="layer"
     id="layer1"
     transform="translate(-67.997907,-120.12082)">
    <path
       id="Path_20"
       data-name="Path 20"
       d="m 72.686145,120.57572 a 0.26458333,0.26458333 0 1 0 -0.374121,-0.37412 l -1.572948,1.57295 -1.131093,-1.54226 a 0.26458333,0.26458333 0 0 0 -0.213255,-0.10821 h -1.128977 a 0.26458333,0.26458333 0 0 0 -0.213254,0.42095 l 1.656556,2.25928 -1.630362,1.63063 a 0.26458333,0.26458333 0 1 0 0.374121,0.37412 l 1.572948,-1.57295 1.131093,1.54226 a 0.26458333,0.26458333 0 0 0 0.213255,0.10821 h 1.128977 a 0.26458333,0.26458333 0 0 0 0.213254,-0.42095 l -1.656556,-2.25928 z m -2.205831,1.7407 a 0.26458333,0.26458333 0 0 0 0.02857,0.0389 l 1.468173,2.0021 h -0.472811 l -2.716477,-3.70416 h 0.472811 z"
       fill="#ffffff"
       fill-rule="evenodd"
       style="stroke-width:0.264583" />
  </g>
</svg>
