<svg xmlns="http://www.w3.org/2000/svg" width="18.164" height="18.196" viewBox="0 0 18.164 18.196">
  <path id="Icon_feather-phone-call" data-name="Icon feather-phone-call" d="M13.766,4.777A4.1,4.1,0,0,1,17,8.012M13.766,1.5A7.372,7.372,0,0,1,20.278,8m-.819,6.537V17a1.638,1.638,0,0,1-1.786,1.638A16.211,16.211,0,0,1,10.6,16.122a15.973,15.973,0,0,1-4.915-4.915A16.211,16.211,0,0,1,3.174,4.1,1.638,1.638,0,0,1,4.8,2.319H7.262A1.638,1.638,0,0,1,8.9,3.728a10.518,10.518,0,0,0,.573,2.3,1.638,1.638,0,0,1-.369,1.728L8.065,8.8a13.106,13.106,0,0,0,4.915,4.915l1.04-1.04a1.638,1.638,0,0,1,1.728-.369,10.518,10.518,0,0,0,2.3.573A1.638,1.638,0,0,1,19.459,14.541Z" transform="translate(-2.667 -0.948)" fill="none" stroke="#feea3d" stroke-linecap="round" stroke-linejoin="round" stroke-width="1"/>
</svg>
