<?xml version="1.0" encoding="UTF-8" standalone="no"?>
<!-- Created with Inkscape (http://www.inkscape.org/) -->

<svg
   width="64.776634mm"
   height="16.489408mm"
   viewBox="0 0 64.776634 16.489409"
   version="1.1"
   id="svg1"
   inkscape:version="1.3 (0e150ed6c4, 2023-07-21)"
   sodipodi:docname="safram-logo-white.svg"
   xmlns:inkscape="http://www.inkscape.org/namespaces/inkscape"
   xmlns:sodipodi="http://sodipodi.sourceforge.net/DTD/sodipodi-0.dtd"
   xmlns="http://www.w3.org/2000/svg"
   xmlns:svg="http://www.w3.org/2000/svg">
  <sodipodi:namedview
     id="namedview1"
     pagecolor="#505050"
     bordercolor="#eeeeee"
     borderopacity="1"
     inkscape:showpageshadow="0"
     inkscape:pageopacity="0"
     inkscape:pagecheckerboard="0"
     inkscape:deskcolor="#505050"
     inkscape:document-units="mm"
     inkscape:zoom="4.0515993"
     inkscape:cx="44.673717"
     inkscape:cy="6.0469948"
     inkscape:window-width="2560"
     inkscape:window-height="1351"
     inkscape:window-x="-9"
     inkscape:window-y="-9"
     inkscape:window-maximized="1"
     inkscape:current-layer="group-MC0" />
  <defs
     id="defs1">
    <clipPath
       clipPathUnits="userSpaceOnUse"
       id="clipPath3">
      <path
         d="M 0,737.008 H 476.22 V 0 H 0 Z"
         transform="translate(-304.79691,-385.82811)"
         id="path3" />
    </clipPath>
    <clipPath
       clipPathUnits="userSpaceOnUse"
       id="clipPath5">
      <path
         d="M 0,737.008 H 476.22 V 0 H 0 Z"
         transform="translate(-137.14551,-374.48831)"
         id="path5" />
    </clipPath>
    <clipPath
       clipPathUnits="userSpaceOnUse"
       id="clipPath7">
      <path
         d="M 0,737.008 H 476.22 V 0 H 0 Z"
         transform="translate(-263.53711,-385.51951)"
         id="path7" />
    </clipPath>
    <clipPath
       clipPathUnits="userSpaceOnUse"
       id="clipPath9">
      <path
         d="M 0,737.008 H 476.22 V 0 H 0 Z"
         transform="translate(-202.85641,-380.80081)"
         id="path9" />
    </clipPath>
    <clipPath
       clipPathUnits="userSpaceOnUse"
       id="clipPath11">
      <path
         d="M 0,737.008 H 476.22 V 0 H 0 Z"
         transform="translate(-226.17681,-359.60741)"
         id="path11" />
    </clipPath>
    <clipPath
       clipPathUnits="userSpaceOnUse"
       id="clipPath13">
      <path
         d="M 0,737.008 H 476.22 V 0 H 0 Z"
         transform="translate(-246.18651,-366.58301)"
         id="path13" />
    </clipPath>
    <clipPath
       clipPathUnits="userSpaceOnUse"
       id="clipPath15">
      <path
         d="M 0,737.008 H 476.22 V 0 H 0 Z"
         transform="translate(-258.48051,-354.04691)"
         id="path15" />
    </clipPath>
    <clipPath
       clipPathUnits="userSpaceOnUse"
       id="clipPath17">
      <path
         d="M 0,737.008 H 476.22 V 0 H 0 Z"
         transform="translate(-280.2148,-359.60741)"
         id="path17" />
    </clipPath>
    <clipPath
       clipPathUnits="userSpaceOnUse"
       id="clipPath19">
      <path
         d="M 0,737.008 H 476.22 V 0 H 0 Z"
         transform="translate(-298.69341,-368.26951)"
         id="path19" />
    </clipPath>
    <clipPath
       clipPathUnits="userSpaceOnUse"
       id="clipPath21">
      <path
         d="M 0,737.008 H 476.22 V 0 H 0 Z"
         transform="translate(-250.01661,-360.32811)"
         id="path21" />
    </clipPath>
    <clipPath
       clipPathUnits="userSpaceOnUse"
       id="clipPath23">
      <path
         d="m 276.419,391.388 c -16.345,-2.958 -20.042,-16.242 -20.042,-16.242 v 0 c -8.379,-6.809 -6.361,-14.818 -6.361,-14.818 v 0 l 0.232,-0.49 c -0.535,15.012 11.518,18.623 25.564,18.695 v 0 c 14.048,0.071 35.438,10.732 35.438,10.732 v 0 c -9.335,-2.353 -13.967,-0.802 -18.667,0.749 v 0 c -2.963,0.978 -5.954,1.955 -10.169,1.955 v 0 c -1.757,0 -3.726,-0.17 -5.995,-0.581"
         transform="translate(-257.62891,-375.99801)"
         id="path23" />
    </clipPath>
    <clipPath
       clipPathUnits="userSpaceOnUse"
       id="clipPath25">
      <path
         d="M 0,737.008 H 476.22 V 0 H 0 Z"
         transform="translate(-144.0366,-372.99121)"
         id="path25" />
    </clipPath>
    <clipPath
       clipPathUnits="userSpaceOnUse"
       id="clipPath27">
      <path
         d="M 0,737.008 H 476.22 V 0 H 0 Z"
         transform="translate(-173.7036,-350.75391)"
         id="path27" />
    </clipPath>
    <clipPath
       clipPathUnits="userSpaceOnUse"
       id="clipPath29">
      <path
         d="M 0,737.008 H 476.22 V 0 H 0 Z"
         transform="translate(-171.0894,-352.38091)"
         id="path29" />
    </clipPath>
    <clipPath
       clipPathUnits="userSpaceOnUse"
       id="clipPath31">
      <path
         d="M 0,737.008 H 476.22 V 0 H 0 Z"
         transform="translate(-163.8882,-363.25681)"
         id="path31" />
    </clipPath>
  </defs>
  <g
     inkscape:label="Layer 1"
     inkscape:groupmode="layer"
     id="layer1"
     transform="translate(-67.657906,-132.46144)">
    <g
       id="group-MC0"
       transform="matrix(0.26458333,0,0,0.26458333,16.844995,10.739641)">
      <path
         id="path8"
         d="m 0,0 c 0.261,0.301 0.512,0.516 0.753,0.646 0.241,0.129 0.511,0.195 0.811,0.195 0.378,0 0.694,-0.12 0.949,-0.362 0.254,-0.241 0.381,-0.537 0.381,-0.888 L 2.835,-0.878 2.66,-1.269 0.372,-5.332 c -0.365,-0.625 -0.789,-1.081 -1.271,-1.367 -0.483,-0.287 -1.142,-0.43 -1.976,-0.43 -0.886,0 -1.555,0.131 -2.004,0.391 -0.45,0.26 -0.851,0.729 -1.203,1.406 l -2.131,4.043 -0.157,0.449 -0.039,0.392 c 0,0.352 0.12,0.655 0.362,0.909 0.24,0.253 0.55,0.38 0.929,0.38 0.326,0 0.602,-0.059 0.831,-0.176 C -6.059,0.548 -5.802,0.326 -5.515,0 l 2.718,-3.284 z m -3.271,-31.439 c -3.193,0 -5.755,0.468 -7.685,1.406 -1.929,0.937 -2.894,2.162 -2.894,3.672 0,0.806 0.274,1.477 0.822,2.011 0.547,0.534 1.232,0.801 2.053,0.801 0.912,0 1.955,-0.469 3.129,-1.407 l 0.195,-0.156 c 0.782,-0.613 1.506,-1.056 2.171,-1.329 0.626,-0.235 1.304,-0.352 2.034,-0.352 0.99,0 1.76,0.166 2.307,0.498 0.548,0.334 0.822,0.793 0.822,1.381 0,0.939 -1.03,1.643 -3.09,2.113 l -0.45,0.098 c -3.807,0.822 -6.346,1.725 -7.617,2.711 -1.271,0.984 -1.906,2.377 -1.906,4.178 0,2.231 0.922,3.983 2.767,5.255 1.844,1.272 4.41,1.909 7.695,1.909 3.103,0 5.541,-0.416 7.314,-1.246 1.773,-0.829 2.66,-1.963 2.66,-3.4 0,-0.679 -0.242,-1.228 -0.724,-1.652 -0.483,-0.424 -1.108,-0.636 -1.877,-0.636 -0.834,0 -1.832,0.34 -2.993,1.018 l -0.626,0.351 c -0.56,0.326 -1.137,0.568 -1.731,0.724 -0.592,0.157 -1.215,0.235 -1.867,0.235 -0.443,0 -0.795,-0.027 -1.056,-0.078 -0.261,-0.053 -0.508,-0.157 -0.743,-0.313 -0.404,-0.261 -0.606,-0.652 -0.606,-1.173 0,-0.756 0.997,-1.369 2.992,-1.838 l 1.115,-0.254 c 3.703,-0.86 6.147,-1.796 7.333,-2.806 1.186,-1.011 1.779,-2.473 1.779,-4.389 0,-2.255 -1.01,-4.041 -3.031,-5.358 -2.02,-1.316 -4.784,-1.974 -8.292,-1.974"
         style="fill:#ffffff;fill-opacity:1;fill-rule:nonzero;stroke:none"
         transform="matrix(1.3333333,0,0,-1.3333333,270.4752,474.94293)"
         clip-path="url(#clipPath9)" />
      <path
         id="path10"
         d="m 0,0 c -0.234,-0.105 -0.534,-0.223 -0.899,-0.352 -0.248,-0.091 -0.463,-0.164 -0.645,-0.215 l -2.093,-0.431 c -1.121,-0.168 -1.89,-0.42 -2.308,-0.752 -0.417,-0.332 -0.625,-0.797 -0.625,-1.396 0,-0.625 0.215,-1.127 0.645,-1.505 0.443,-0.339 1.056,-0.508 1.838,-0.508 1.447,0 2.497,0.322 3.149,0.968 0.652,0.644 0.978,1.696 0.978,3.155 L 0.02,-0.411 Z M 8.331,-4.844 8.37,-5.918 8.409,-7.052 C 8.409,-7.95 8.103,-8.641 7.49,-9.123 6.878,-9.604 5.984,-9.846 4.812,-9.846 c -1.2,0 -2.139,0.268 -2.817,0.803 -0.678,0.535 -1.115,1.389 -1.31,2.563 -0.913,-1.249 -2.043,-2.189 -3.393,-2.819 -1.349,-0.631 -2.943,-0.947 -4.782,-0.947 -2.385,0 -4.237,0.59 -5.553,1.77 -1.317,1.181 -1.976,2.847 -1.976,4.997 0,2.114 0.652,3.678 1.956,4.696 1.304,1.017 3.611,1.721 6.923,2.112 l 1.643,0.176 c 3.05,0.313 4.576,1.03 4.576,2.151 0,0.574 -0.239,1.018 -0.714,1.33 -0.476,0.314 -1.17,0.47 -2.083,0.47 -0.756,0 -1.405,-0.061 -1.946,-0.186 C -5.205,7.146 -5.697,6.939 -6.14,6.652 L -6.981,6.025 C -8.324,4.98 -9.602,4.458 -10.814,4.458 c -0.613,0 -1.167,0.258 -1.662,0.773 -0.496,0.515 -0.743,1.126 -0.743,1.831 0,1.553 0.981,2.854 2.943,3.905 1.962,1.051 4.494,1.576 7.597,1.576 1.8,0 3.423,-0.156 4.869,-0.469 0.77,-0.17 1.418,-0.355 1.946,-0.556 0.528,-0.204 1.02,-0.46 1.476,-0.772 C 6.616,10.081 7.32,9.313 7.725,8.439 7.921,8.01 8.07,7.496 8.175,6.896 8.278,6.298 8.331,5.594 8.331,4.787 Z"
         style="fill:#ffffff;fill-opacity:1;fill-rule:nonzero;stroke:none"
         transform="matrix(1.3333333,0,0,-1.3333333,301.56907,503.2008)"
         clip-path="url(#clipPath11)" />
      <path
         id="path12"
         d="m 0,0 v -12.537 c 0,-1.317 -0.375,-2.36 -1.124,-3.13 -0.75,-0.77 -1.776,-1.154 -3.08,-1.154 -1.277,0 -2.298,0.394 -3.061,1.183 -0.762,0.789 -1.144,1.862 -1.144,3.218 V 0 h -1.526 c -0.651,0 -1.182,0.206 -1.593,0.618 -0.41,0.412 -0.616,0.951 -0.616,1.619 0,0.744 0.215,1.36 0.645,1.843 0.432,0.483 0.992,0.726 1.683,0.726 h 1.407 v 1.33 c 0,2.345 0.59,4.086 1.77,5.219 1.18,1.134 3.015,1.701 5.505,1.701 2.047,0 3.549,-0.242 4.508,-0.725 0.958,-0.482 1.438,-1.253 1.438,-2.31 C 4.812,9.198 4.608,8.604 4.204,8.238 3.8,7.872 3.142,7.689 2.229,7.689 1.435,7.689 0.864,7.54 0.519,7.241 0.173,6.942 0,6.456 0,5.78 V 4.806 H 1.8 C 2.698,4.806 3.39,4.604 3.872,4.198 4.354,3.792 4.596,3.224 4.596,2.491 4.596,1.706 4.354,1.095 3.872,0.657 3.39,0.22 2.712,0 1.839,0 Z"
         style="fill:#ffffff;fill-opacity:1;fill-rule:nonzero;stroke:none"
         transform="matrix(1.3333333,0,0,-1.3333333,328.24867,493.9)"
         clip-path="url(#clipPath13)" />
      <path
         id="path14"
         d="m 0,0 c 0,-1.305 -0.385,-2.344 -1.154,-3.121 -0.77,-0.775 -1.8,-1.164 -3.091,-1.164 -1.292,0 -2.322,0.394 -3.092,1.183 -0.768,0.789 -1.154,1.863 -1.154,3.219 v 13.576 c 0,1.266 0.339,2.256 1.018,2.974 0.678,0.718 1.631,1.076 2.858,1.076 1.317,0 2.302,-0.329 2.955,-0.987 0.652,-0.658 0.978,-1.666 0.978,-3.022 v -1.798 c 0.678,2.021 1.484,3.521 2.415,4.5 0.932,0.978 2.023,1.466 3.275,1.466 1.029,0 1.841,-0.336 2.433,-1.006 0.594,-0.672 0.89,-1.615 0.89,-2.828 0,-1.134 -0.31,-2.025 -0.929,-2.671 C 6.783,10.752 5.694,10.227 4.137,9.822 2.578,9.418 1.5,8.841 0.9,8.091 0.3,7.341 0,6.242 0,4.794 Z"
         style="fill:#ffffff;fill-opacity:1;fill-rule:nonzero;stroke:none"
         transform="matrix(1.3333333,0,0,-1.3333333,344.64067,510.6148)"
         clip-path="url(#clipPath15)" />
      <path
         id="path16"
         d="m 0,0 c -0.234,-0.105 -0.535,-0.223 -0.9,-0.352 -0.247,-0.091 -0.463,-0.164 -0.645,-0.215 l -2.093,-0.431 c -1.121,-0.168 -1.89,-0.42 -2.307,-0.752 -0.417,-0.332 -0.626,-0.797 -0.626,-1.396 0,-0.625 0.216,-1.127 0.645,-1.505 0.444,-0.339 1.057,-0.508 1.838,-0.508 1.447,0 2.497,0.322 3.149,0.968 0.652,0.644 0.978,1.696 0.978,3.155 L 0.02,-0.411 Z m 8.33,-4.844 0.039,-1.074 0.039,-1.134 c 0,-0.898 -0.306,-1.589 -0.919,-2.071 -0.612,-0.481 -1.506,-0.723 -2.678,-0.723 -1.2,0 -2.139,0.268 -2.817,0.803 -0.678,0.535 -1.114,1.389 -1.31,2.563 -0.913,-1.249 -2.043,-2.189 -3.393,-2.819 -1.35,-0.631 -2.943,-0.947 -4.781,-0.947 -2.386,0 -4.237,0.59 -5.554,1.77 -1.317,1.181 -1.976,2.847 -1.976,4.997 0,2.114 0.653,3.678 1.957,4.696 1.303,1.017 3.611,1.721 6.922,2.112 l 1.643,0.176 c 3.051,0.313 4.576,1.03 4.576,2.151 0,0.574 -0.238,1.018 -0.714,1.33 -0.475,0.314 -1.171,0.47 -2.083,0.47 -0.756,0 -1.404,-0.061 -1.945,-0.186 C -5.205,7.146 -5.697,6.939 -6.141,6.652 L -6.981,6.025 C -8.324,4.98 -9.602,4.458 -10.814,4.458 c -0.614,0 -1.167,0.258 -1.663,0.773 -0.496,0.515 -0.744,1.126 -0.744,1.831 0,1.553 0.982,2.854 2.944,3.905 1.963,1.051 4.495,1.576 7.597,1.576 1.799,0 3.423,-0.156 4.869,-0.469 0.77,-0.17 1.418,-0.355 1.947,-0.556 0.528,-0.204 1.02,-0.46 1.476,-0.772 C 6.615,10.081 7.32,9.313 7.725,8.439 7.92,8.01 8.07,7.496 8.174,6.896 8.278,6.298 8.33,5.594 8.33,4.787 Z"
         style="fill:#ffffff;fill-opacity:1;fill-rule:nonzero;stroke:none"
         transform="matrix(1.3333333,0,0,-1.3333333,373.61973,503.2008)"
         clip-path="url(#clipPath17)" />
      <path
         id="path18"
         d="m 0,0 c 0.939,1.267 1.988,2.203 3.148,2.811 0.575,0.29 1.194,0.513 1.859,0.671 0.665,0.159 1.369,0.239 2.112,0.239 1.473,0 2.75,-0.311 3.832,-0.93 C 12.033,2.17 12.895,1.24 13.533,0 c 1.03,1.279 2.16,2.219 3.393,2.82 1.232,0.6 2.611,0.901 4.136,0.901 2.49,0 4.429,-0.65 5.817,-1.948 1.389,-1.297 2.083,-3.107 2.083,-5.429 v -10.567 c 0,-1.316 -0.374,-2.36 -1.124,-3.13 -0.75,-0.77 -1.764,-1.155 -3.041,-1.155 -1.266,0 -2.276,0.392 -3.032,1.174 -0.757,0.782 -1.135,1.857 -1.135,3.227 v 7.334 c 0,1.355 -0.228,2.326 -0.685,2.913 -0.457,0.587 -1.206,0.88 -2.249,0.88 -0.964,0 -1.691,-0.317 -2.18,-0.949 -0.489,-0.632 -0.733,-1.606 -0.733,-2.923 v -7.373 c 0,-1.343 -0.369,-2.392 -1.105,-3.148 -0.737,-0.756 -1.756,-1.135 -3.06,-1.135 -1.251,0 -2.252,0.395 -3.001,1.184 -0.75,0.789 -1.125,1.861 -1.125,3.217 v 7.04 c 0,1.433 -0.231,2.473 -0.694,3.118 C 5.335,-3.303 4.576,-2.98 3.52,-2.98 2.594,-2.98 1.883,-3.3 1.389,-3.938 0.893,-4.577 0.645,-5.51 0.645,-6.735 v -7.49 c 0,-1.291 -0.387,-2.327 -1.164,-3.109 -0.776,-0.782 -1.789,-1.174 -3.04,-1.174 -1.252,0 -2.252,0.395 -3.002,1.184 -0.75,0.789 -1.125,1.862 -1.125,3.219 v 13.537 c 0,1.343 0.327,2.361 0.979,3.052 0.651,0.691 1.603,1.037 2.854,1.037 1.174,0 2.087,-0.306 2.74,-0.919 0.351,-0.313 0.625,-0.685 0.82,-1.116 C -0.098,1.057 0,0.562 0,0"
         style="fill:#ffffff;fill-opacity:1;fill-rule:nonzero;stroke:none"
         transform="matrix(1.3333333,0,0,-1.3333333,398.25787,491.65133)"
         clip-path="url(#clipPath19)" />
      <path
         id="path20"
         clip-path="url(#clipPath21)"
         style="fill:#ffffff;fill-opacity:1;fill-rule:nonzero;stroke:none"
         d="M 31.866191 31.637334 C 30.245127 31.606225 28.445447 31.431525 26.402324 31.06165 C 10.05834 28.102653 6.360331 14.817997 6.360331 14.817997 C -2.0186606 8.0090043 -2.0771199e-05 -0.00036248304 -2.0771199e-05 -0.00036248304 L 0.23142455 -0.48962031 C -0.30357491 14.521365 11.748893 18.132716 25.795879 18.204716 C 39.843865 18.274716 61.23338 28.937627 61.23338 28.937627 C 45.77127 25.039506 43.213645 31.855099 31.866191 31.637334 z M 34.703594 27.061162 C 35.172625 27.059258 35.427227 27.045049 35.427227 27.045049 C 20.569242 25.50105 10.771941 18.205432 7.6889444 15.591435 L 7.6127725 15.670537 C 17.659512 26.454901 31.420378 27.074492 34.703594 27.061162 z "
         transform="matrix(1.3333333,0,0,-1.3333333,333.35547,502.23987)" />
      <path
         id="path24"
         clip-path="url(#clipPath25)"
         style="fill:#ffffff;fill-opacity:1;fill-rule:nonzero;stroke:none"
         d="M 8.5034182 8.5035252 C 3.8064323 8.5035252 -7.5129484e-08 4.6960928 -7.5129484e-08 0.00010689526 L -7.5129484e-08 -19.259659 C -7.5129484e-08 -23.956647 3.8064323 -27.763078 8.5034182 -27.763078 L 27.763185 -27.763078 C 32.45917 -27.763078 36.266603 -23.956647 36.266603 -19.259659 L 36.266603 0.00010689526 C 36.266603 4.6960928 32.45917 8.5035252 27.763185 8.5035252 L 8.5034182 8.5035252 z M 28.877931 5.9839938 C 29.18911 5.96833 29.490431 5.6634271 29.581056 5.5284274 C 29.726056 5.311428 30.01507 4.6959514 30.268067 4.8399508 C 30.521067 4.9849505 31.246177 5.2393745 31.680177 4.5513766 C 32.114174 3.8643787 30.775307 2.8523143 30.34131 2.887314 C 29.90731 2.924314 29.762696 2.4903414 29.762696 2.4903414 C 31.498693 0.78934638 31.138185 -2.101944 31.138185 -2.101944 C 30.703185 -4.6339362 28.497071 -4.2010651 28.497071 -4.2010651 C 26.507077 -3.2240681 27.555177 -2.101944 27.555177 -2.101944 C 28.459174 -0.61994835 27.194825 0.17588815 27.194825 0.17588815 C 25.132831 1.4418843 23.794052 -1.9578094 22.456055 -3.9828034 C 21.118061 -6.0077974 22.92627 -6.3353426 22.92627 -6.3353426 C 24.554267 -6.2253429 25.34998 -5.7554468 26.000977 -5.393448 C 26.651977 -5.0324492 26.976852 -4.2002815 28.568849 -4.67128 C 30.160843 -5.1412785 29.291017 -7.1307527 29.291017 -7.1307527 C 29.291017 -7.1307527 20.972572 -22.174691 20.538575 -22.716691 C 20.104575 -23.259688 19.417901 -24.853042 17.753907 -24.202042 C 16.089913 -23.550045 17.247071 -21.596085 17.247071 -21.596085 C 17.247071 -21.596085 22.601305 -12.483427 23.758302 -10.602433 C 24.916296 -8.7214372 22.889177 -9.0831473 21.65918 -9.0101473 C 20.430186 -8.9381476 19.851563 -9.7337802 19.851563 -9.7337802 L 19.760743 -9.8597568 C 19.634743 -10.041757 18.837891 -11.686417 18.837891 -11.686417 C 16.4869 -17.980399 12.254883 -19.970109 12.254883 -19.970109 C 8.0588962 -22.104103 5.3833009 -18.811417 5.3833009 -18.811417 C -1.4886784 -12.121438 5.2382814 -6.1185457 5.2382814 -6.1185457 C 8.5302715 -3.1885544 14.497195 -4.671878 15.221192 -4.8338777 C 15.944189 -4.9978771 17.8257 -5.2132752 18.2417 -4.9422761 C 18.657697 -4.671277 18.982911 -3.949112 18.982911 -3.949112 C 20.935905 -0.33212286 22.925737 2.1279976 24.698731 3.3589937 C 26.470728 4.5879901 27.881634 3.5031894 28.098634 3.6841891 C 28.315634 3.8651885 27.955052 4.8042072 28.352052 5.6002048 C 28.501302 5.8987039 28.691222 5.9933923 28.877931 5.9839938 z M 10.180664 -7.3519442 C 9.9170858 -7.3539403 9.709738 -7.374077 9.5786136 -7.419327 C 8.5296166 -7.7813258 5.1290729 -9.4093277 5.9970705 -13.857316 C 5.9970705 -13.857316 6.6130213 -17.472792 9.687012 -17.545792 C 9.687012 -17.545792 12.038546 -17.47369 14.35254 -13.278702 C 14.35254 -13.278702 16.089458 -10.168367 16.668458 -8.93837 C 16.668458 -8.93837 16.794657 -8.6317988 16.722657 -8.3787997 L 16.595215 -8.2513583 C 16.595215 -8.2513583 12.025721 -7.3379715 10.180664 -7.3519442 z M 27.001466 -19.571671 C 28.469464 -19.571671 29.667482 -20.768688 29.667482 -22.237687 C 29.667482 -23.706685 28.469464 -24.903703 27.001466 -24.903703 C 25.532467 -24.903703 24.336915 -23.706685 24.336915 -22.237687 C 24.336915 -20.768688 25.532467 -19.571671 27.001466 -19.571671 z M 27.001466 -19.899796 C 25.749467 -19.899796 24.663575 -20.932688 24.663575 -22.237687 C 24.663575 -23.489686 25.749467 -24.522843 27.001466 -24.522843 C 28.307464 -24.522843 29.340821 -23.489686 29.340821 -22.237687 C 29.340821 -20.932688 28.307464 -19.899796 27.001466 -19.899796 z M 26.834474 -20.610245 L 27.052735 -20.610245 C 27.433735 -20.610245 27.704653 -20.718242 27.868653 -20.881242 C 28.031653 -20.99124 28.141114 -21.207363 28.141114 -21.480363 C 28.141114 -21.915361 27.869257 -22.186281 27.489259 -22.296281 C 27.760257 -22.403281 27.923251 -22.622136 28.031251 -22.948136 C 28.140251 -23.438136 28.195712 -23.763919 28.303712 -23.873917 L 27.814454 -23.873917 C 27.759454 -23.763919 27.650192 -23.493197 27.596192 -23.112199 C 27.488192 -22.731199 27.323735 -22.567878 27.052735 -22.458878 L 26.834474 -22.458878 L 26.40088 -22.458878 L 26.40088 -23.873917 L 25.965821 -23.873917 L 25.965821 -20.66591 C 26.181821 -20.61091 26.508474 -20.610245 26.834474 -20.610245 z M 26.40088 -20.936906 L 26.40088 -22.130753 L 26.888673 -22.130753 L 27.052735 -22.130753 C 27.433735 -22.077753 27.704591 -21.860562 27.704591 -21.534562 C 27.704591 -21.154562 27.433735 -20.991906 27.052735 -20.936906 L 26.888673 -20.936906 L 26.40088 -20.936906 z "
         transform="matrix(1.3333333,0,0,-1.3333333,192.0488,485.35573)" />
    </g>
  </g>
</svg>
