<?xml version="1.0" encoding="UTF-8" standalone="no"?>
<!-- Created with Inkscape (http://www.inkscape.org/) -->

<svg
   width="72.712433mm"
   height="19.032883mm"
   viewBox="0 0 72.712433 19.032883"
   version="1.1"
   id="svg1"
   inkscape:version="1.3 (0e150ed6c4, 2023-07-21)"
   sodipodi:docname="safram-logo.svg"
   xmlns:inkscape="http://www.inkscape.org/namespaces/inkscape"
   xmlns:sodipodi="http://sodipodi.sourceforge.net/DTD/sodipodi-0.dtd"
   xmlns="http://www.w3.org/2000/svg"
   xmlns:svg="http://www.w3.org/2000/svg">
  <sodipodi:namedview
     id="namedview1"
     pagecolor="#505050"
     bordercolor="#eeeeee"
     borderopacity="1"
     inkscape:showpageshadow="0"
     inkscape:pageopacity="0"
     inkscape:pagecheckerboard="0"
     inkscape:deskcolor="#505050"
     inkscape:document-units="mm"
     inkscape:zoom="1.0128998"
     inkscape:cx="152.03873"
     inkscape:cy="63.678557"
     inkscape:window-width="2560"
     inkscape:window-height="1351"
     inkscape:window-x="-9"
     inkscape:window-y="-9"
     inkscape:window-maximized="1"
     inkscape:current-layer="layer1" />
  <defs
     id="defs1">
    <clipPath
       clipPathUnits="userSpaceOnUse"
       id="clipPath3">
      <path
         d="M 0,737.008 H 476.22 V 0 H 0 Z"
         transform="translate(-304.79691,-385.82811)"
         id="path3" />
    </clipPath>
    <clipPath
       clipPathUnits="userSpaceOnUse"
       id="clipPath5">
      <path
         d="M 0,737.008 H 476.22 V 0 H 0 Z"
         transform="translate(-137.14551,-374.48831)"
         id="path5" />
    </clipPath>
    <clipPath
       clipPathUnits="userSpaceOnUse"
       id="clipPath7">
      <path
         d="M 0,737.008 H 476.22 V 0 H 0 Z"
         transform="translate(-263.53711,-385.51951)"
         id="path7" />
    </clipPath>
    <clipPath
       clipPathUnits="userSpaceOnUse"
       id="clipPath9">
      <path
         d="M 0,737.008 H 476.22 V 0 H 0 Z"
         transform="translate(-202.85641,-380.80081)"
         id="path9" />
    </clipPath>
    <clipPath
       clipPathUnits="userSpaceOnUse"
       id="clipPath11">
      <path
         d="M 0,737.008 H 476.22 V 0 H 0 Z"
         transform="translate(-226.17681,-359.60741)"
         id="path11" />
    </clipPath>
    <clipPath
       clipPathUnits="userSpaceOnUse"
       id="clipPath13">
      <path
         d="M 0,737.008 H 476.22 V 0 H 0 Z"
         transform="translate(-246.18651,-366.58301)"
         id="path13" />
    </clipPath>
    <clipPath
       clipPathUnits="userSpaceOnUse"
       id="clipPath15">
      <path
         d="M 0,737.008 H 476.22 V 0 H 0 Z"
         transform="translate(-258.48051,-354.04691)"
         id="path15" />
    </clipPath>
    <clipPath
       clipPathUnits="userSpaceOnUse"
       id="clipPath17">
      <path
         d="M 0,737.008 H 476.22 V 0 H 0 Z"
         transform="translate(-280.2148,-359.60741)"
         id="path17" />
    </clipPath>
    <clipPath
       clipPathUnits="userSpaceOnUse"
       id="clipPath19">
      <path
         d="M 0,737.008 H 476.22 V 0 H 0 Z"
         transform="translate(-298.69341,-368.26951)"
         id="path19" />
    </clipPath>
    <clipPath
       clipPathUnits="userSpaceOnUse"
       id="clipPath21">
      <path
         d="M 0,737.008 H 476.22 V 0 H 0 Z"
         transform="translate(-250.01661,-360.32811)"
         id="path21" />
    </clipPath>
    <clipPath
       clipPathUnits="userSpaceOnUse"
       id="clipPath23">
      <path
         d="m 276.419,391.388 c -16.345,-2.958 -20.042,-16.242 -20.042,-16.242 v 0 c -8.379,-6.809 -6.361,-14.818 -6.361,-14.818 v 0 l 0.232,-0.49 c -0.535,15.012 11.518,18.623 25.564,18.695 v 0 c 14.048,0.071 35.438,10.732 35.438,10.732 v 0 c -9.335,-2.353 -13.967,-0.802 -18.667,0.749 v 0 c -2.963,0.978 -5.954,1.955 -10.169,1.955 v 0 c -1.757,0 -3.726,-0.17 -5.995,-0.581"
         transform="translate(-257.62891,-375.99801)"
         id="path23" />
    </clipPath>
    <clipPath
       clipPathUnits="userSpaceOnUse"
       id="clipPath25">
      <path
         d="M 0,737.008 H 476.22 V 0 H 0 Z"
         transform="translate(-144.0366,-372.99121)"
         id="path25" />
    </clipPath>
    <clipPath
       clipPathUnits="userSpaceOnUse"
       id="clipPath27">
      <path
         d="M 0,737.008 H 476.22 V 0 H 0 Z"
         transform="translate(-173.7036,-350.75391)"
         id="path27" />
    </clipPath>
    <clipPath
       clipPathUnits="userSpaceOnUse"
       id="clipPath29">
      <path
         d="M 0,737.008 H 476.22 V 0 H 0 Z"
         transform="translate(-171.0894,-352.38091)"
         id="path29" />
    </clipPath>
    <clipPath
       clipPathUnits="userSpaceOnUse"
       id="clipPath31">
      <path
         d="M 0,737.008 H 476.22 V 0 H 0 Z"
         transform="translate(-163.8882,-363.25681)"
         id="path31" />
    </clipPath>
  </defs>
  <g
     inkscape:label="Layer 1"
     inkscape:groupmode="layer"
     id="layer1"
     transform="translate(-64.822916,-131.7625)">
    <g
       id="group-MC0"
       transform="matrix(0.26458333,0,0,0.26458333,16.844995,10.739641)">
      <path
         id="path2"
         d="m 0,0 h 25.083 c 6.263,0 11.339,-5.077 11.339,-11.34 v -22.254 c 0,-6.261 -5.076,-11.339 -11.339,-11.339 h -181.646 c -6.262,0 -11.338,5.078 -11.338,11.339 v 22.254 c 0,6.263 5.076,11.34 11.338,11.34 h 120.75"
         style="fill:none;stroke:#009e59;stroke-width:1.791;stroke-linecap:round;stroke-linejoin:miter;stroke-miterlimit:3.864;stroke-dasharray:none;stroke-opacity:1"
         transform="matrix(1.3333333,0,0,-1.3333333,406.39587,468.23987)"
         clip-path="url(#clipPath3)" />
      <path
         id="path4"
         d="m 0,0 c 0,3.132 1.269,5.967 3.321,8.019 2.052,2.051 4.887,3.321 8.018,3.321 h 106.986 74.409 c 3.132,0 5.966,-1.27 8.018,-3.321 2.052,-2.052 3.321,-4.887 3.321,-8.019 v -11.127 -11.127 c 0,-3.131 -1.269,-5.966 -3.321,-8.017 -2.052,-2.053 -4.886,-3.322 -8.018,-3.322 H 118.325 11.339 c -3.131,0 -5.966,1.269 -8.018,3.322 C 1.269,-28.22 0,-25.385 0,-22.254 v 11.127 z"
         style="fill:#009e59;fill-opacity:1;fill-rule:nonzero;stroke:none"
         transform="matrix(1.3333333,0,0,-1.3333333,182.86067,483.3596)"
         clip-path="url(#clipPath5)" />
      <path
         id="path6"
         d="m 0,0 c 2.968,2.545 7.176,4.836 12.882,5.869 16.345,2.959 17.159,-6.577 34.831,-2.123 0,0 -2.225,-1.109 -5.709,-2.613"
         style="fill:none;stroke:#009e59;stroke-width:4;stroke-linecap:round;stroke-linejoin:round;stroke-miterlimit:3.864;stroke-dasharray:none;stroke-opacity:1"
         transform="matrix(1.3333333,0,0,-1.3333333,351.3828,468.65133)"
         clip-path="url(#clipPath7)" />
      <path
         id="path8"
         d="m 0,0 c 0.261,0.301 0.512,0.516 0.753,0.646 0.241,0.129 0.511,0.195 0.811,0.195 0.378,0 0.694,-0.12 0.949,-0.362 0.254,-0.241 0.381,-0.537 0.381,-0.888 L 2.835,-0.878 2.66,-1.269 0.372,-5.332 c -0.365,-0.625 -0.789,-1.081 -1.271,-1.367 -0.483,-0.287 -1.142,-0.43 -1.976,-0.43 -0.886,0 -1.555,0.131 -2.004,0.391 -0.45,0.26 -0.851,0.729 -1.203,1.406 l -2.131,4.043 -0.157,0.449 -0.039,0.392 c 0,0.352 0.12,0.655 0.362,0.909 0.24,0.253 0.55,0.38 0.929,0.38 0.326,0 0.602,-0.059 0.831,-0.176 C -6.059,0.548 -5.802,0.326 -5.515,0 l 2.718,-3.284 z m -3.271,-31.439 c -3.193,0 -5.755,0.468 -7.685,1.406 -1.929,0.937 -2.894,2.162 -2.894,3.672 0,0.806 0.274,1.477 0.822,2.011 0.547,0.534 1.232,0.801 2.053,0.801 0.912,0 1.955,-0.469 3.129,-1.407 l 0.195,-0.156 c 0.782,-0.613 1.506,-1.056 2.171,-1.329 0.626,-0.235 1.304,-0.352 2.034,-0.352 0.99,0 1.76,0.166 2.307,0.498 0.548,0.334 0.822,0.793 0.822,1.381 0,0.939 -1.03,1.643 -3.09,2.113 l -0.45,0.098 c -3.807,0.822 -6.346,1.725 -7.617,2.711 -1.271,0.984 -1.906,2.377 -1.906,4.178 0,2.231 0.922,3.983 2.767,5.255 1.844,1.272 4.41,1.909 7.695,1.909 3.103,0 5.541,-0.416 7.314,-1.246 1.773,-0.829 2.66,-1.963 2.66,-3.4 0,-0.679 -0.242,-1.228 -0.724,-1.652 -0.483,-0.424 -1.108,-0.636 -1.877,-0.636 -0.834,0 -1.832,0.34 -2.993,1.018 l -0.626,0.351 c -0.56,0.326 -1.137,0.568 -1.731,0.724 -0.592,0.157 -1.215,0.235 -1.867,0.235 -0.443,0 -0.795,-0.027 -1.056,-0.078 -0.261,-0.053 -0.508,-0.157 -0.743,-0.313 -0.404,-0.261 -0.606,-0.652 -0.606,-1.173 0,-0.756 0.997,-1.369 2.992,-1.838 l 1.115,-0.254 c 3.703,-0.86 6.147,-1.796 7.333,-2.806 1.186,-1.011 1.779,-2.473 1.779,-4.389 0,-2.255 -1.01,-4.041 -3.031,-5.358 -2.02,-1.316 -4.784,-1.974 -8.292,-1.974"
         style="fill:#fff200;fill-opacity:1;fill-rule:nonzero;stroke:none"
         transform="matrix(1.3333333,0,0,-1.3333333,270.4752,474.94293)"
         clip-path="url(#clipPath9)" />
      <path
         id="path10"
         d="m 0,0 c -0.234,-0.105 -0.534,-0.223 -0.899,-0.352 -0.248,-0.091 -0.463,-0.164 -0.645,-0.215 l -2.093,-0.431 c -1.121,-0.168 -1.89,-0.42 -2.308,-0.752 -0.417,-0.332 -0.625,-0.797 -0.625,-1.396 0,-0.625 0.215,-1.127 0.645,-1.505 0.443,-0.339 1.056,-0.508 1.838,-0.508 1.447,0 2.497,0.322 3.149,0.968 0.652,0.644 0.978,1.696 0.978,3.155 L 0.02,-0.411 Z M 8.331,-4.844 8.37,-5.918 8.409,-7.052 C 8.409,-7.95 8.103,-8.641 7.49,-9.123 6.878,-9.604 5.984,-9.846 4.812,-9.846 c -1.2,0 -2.139,0.268 -2.817,0.803 -0.678,0.535 -1.115,1.389 -1.31,2.563 -0.913,-1.249 -2.043,-2.189 -3.393,-2.819 -1.349,-0.631 -2.943,-0.947 -4.782,-0.947 -2.385,0 -4.237,0.59 -5.553,1.77 -1.317,1.181 -1.976,2.847 -1.976,4.997 0,2.114 0.652,3.678 1.956,4.696 1.304,1.017 3.611,1.721 6.923,2.112 l 1.643,0.176 c 3.05,0.313 4.576,1.03 4.576,2.151 0,0.574 -0.239,1.018 -0.714,1.33 -0.476,0.314 -1.17,0.47 -2.083,0.47 -0.756,0 -1.405,-0.061 -1.946,-0.186 C -5.205,7.146 -5.697,6.939 -6.14,6.652 L -6.981,6.025 C -8.324,4.98 -9.602,4.458 -10.814,4.458 c -0.613,0 -1.167,0.258 -1.662,0.773 -0.496,0.515 -0.743,1.126 -0.743,1.831 0,1.553 0.981,2.854 2.943,3.905 1.962,1.051 4.494,1.576 7.597,1.576 1.8,0 3.423,-0.156 4.869,-0.469 0.77,-0.17 1.418,-0.355 1.946,-0.556 0.528,-0.204 1.02,-0.46 1.476,-0.772 C 6.616,10.081 7.32,9.313 7.725,8.439 7.921,8.01 8.07,7.496 8.175,6.896 8.278,6.298 8.331,5.594 8.331,4.787 Z"
         style="fill:#fff200;fill-opacity:1;fill-rule:nonzero;stroke:none"
         transform="matrix(1.3333333,0,0,-1.3333333,301.56907,503.2008)"
         clip-path="url(#clipPath11)" />
      <path
         id="path12"
         d="m 0,0 v -12.537 c 0,-1.317 -0.375,-2.36 -1.124,-3.13 -0.75,-0.77 -1.776,-1.154 -3.08,-1.154 -1.277,0 -2.298,0.394 -3.061,1.183 -0.762,0.789 -1.144,1.862 -1.144,3.218 V 0 h -1.526 c -0.651,0 -1.182,0.206 -1.593,0.618 -0.41,0.412 -0.616,0.951 -0.616,1.619 0,0.744 0.215,1.36 0.645,1.843 0.432,0.483 0.992,0.726 1.683,0.726 h 1.407 v 1.33 c 0,2.345 0.59,4.086 1.77,5.219 1.18,1.134 3.015,1.701 5.505,1.701 2.047,0 3.549,-0.242 4.508,-0.725 0.958,-0.482 1.438,-1.253 1.438,-2.31 C 4.812,9.198 4.608,8.604 4.204,8.238 3.8,7.872 3.142,7.689 2.229,7.689 1.435,7.689 0.864,7.54 0.519,7.241 0.173,6.942 0,6.456 0,5.78 V 4.806 H 1.8 C 2.698,4.806 3.39,4.604 3.872,4.198 4.354,3.792 4.596,3.224 4.596,2.491 4.596,1.706 4.354,1.095 3.872,0.657 3.39,0.22 2.712,0 1.839,0 Z"
         style="fill:#fff200;fill-opacity:1;fill-rule:nonzero;stroke:none"
         transform="matrix(1.3333333,0,0,-1.3333333,328.24867,493.9)"
         clip-path="url(#clipPath13)" />
      <path
         id="path14"
         d="m 0,0 c 0,-1.305 -0.385,-2.344 -1.154,-3.121 -0.77,-0.775 -1.8,-1.164 -3.091,-1.164 -1.292,0 -2.322,0.394 -3.092,1.183 -0.768,0.789 -1.154,1.863 -1.154,3.219 v 13.576 c 0,1.266 0.339,2.256 1.018,2.974 0.678,0.718 1.631,1.076 2.858,1.076 1.317,0 2.302,-0.329 2.955,-0.987 0.652,-0.658 0.978,-1.666 0.978,-3.022 v -1.798 c 0.678,2.021 1.484,3.521 2.415,4.5 0.932,0.978 2.023,1.466 3.275,1.466 1.029,0 1.841,-0.336 2.433,-1.006 0.594,-0.672 0.89,-1.615 0.89,-2.828 0,-1.134 -0.31,-2.025 -0.929,-2.671 C 6.783,10.752 5.694,10.227 4.137,9.822 2.578,9.418 1.5,8.841 0.9,8.091 0.3,7.341 0,6.242 0,4.794 Z"
         style="fill:#fff200;fill-opacity:1;fill-rule:nonzero;stroke:none"
         transform="matrix(1.3333333,0,0,-1.3333333,344.64067,510.6148)"
         clip-path="url(#clipPath15)" />
      <path
         id="path16"
         d="m 0,0 c -0.234,-0.105 -0.535,-0.223 -0.9,-0.352 -0.247,-0.091 -0.463,-0.164 -0.645,-0.215 l -2.093,-0.431 c -1.121,-0.168 -1.89,-0.42 -2.307,-0.752 -0.417,-0.332 -0.626,-0.797 -0.626,-1.396 0,-0.625 0.216,-1.127 0.645,-1.505 0.444,-0.339 1.057,-0.508 1.838,-0.508 1.447,0 2.497,0.322 3.149,0.968 0.652,0.644 0.978,1.696 0.978,3.155 L 0.02,-0.411 Z m 8.33,-4.844 0.039,-1.074 0.039,-1.134 c 0,-0.898 -0.306,-1.589 -0.919,-2.071 -0.612,-0.481 -1.506,-0.723 -2.678,-0.723 -1.2,0 -2.139,0.268 -2.817,0.803 -0.678,0.535 -1.114,1.389 -1.31,2.563 -0.913,-1.249 -2.043,-2.189 -3.393,-2.819 -1.35,-0.631 -2.943,-0.947 -4.781,-0.947 -2.386,0 -4.237,0.59 -5.554,1.77 -1.317,1.181 -1.976,2.847 -1.976,4.997 0,2.114 0.653,3.678 1.957,4.696 1.303,1.017 3.611,1.721 6.922,2.112 l 1.643,0.176 c 3.051,0.313 4.576,1.03 4.576,2.151 0,0.574 -0.238,1.018 -0.714,1.33 -0.475,0.314 -1.171,0.47 -2.083,0.47 -0.756,0 -1.404,-0.061 -1.945,-0.186 C -5.205,7.146 -5.697,6.939 -6.141,6.652 L -6.981,6.025 C -8.324,4.98 -9.602,4.458 -10.814,4.458 c -0.614,0 -1.167,0.258 -1.663,0.773 -0.496,0.515 -0.744,1.126 -0.744,1.831 0,1.553 0.982,2.854 2.944,3.905 1.963,1.051 4.495,1.576 7.597,1.576 1.799,0 3.423,-0.156 4.869,-0.469 0.77,-0.17 1.418,-0.355 1.947,-0.556 0.528,-0.204 1.02,-0.46 1.476,-0.772 C 6.615,10.081 7.32,9.313 7.725,8.439 7.92,8.01 8.07,7.496 8.174,6.896 8.278,6.298 8.33,5.594 8.33,4.787 Z"
         style="fill:#fff200;fill-opacity:1;fill-rule:nonzero;stroke:none"
         transform="matrix(1.3333333,0,0,-1.3333333,373.61973,503.2008)"
         clip-path="url(#clipPath17)" />
      <path
         id="path18"
         d="m 0,0 c 0.939,1.267 1.988,2.203 3.148,2.811 0.575,0.29 1.194,0.513 1.859,0.671 0.665,0.159 1.369,0.239 2.112,0.239 1.473,0 2.75,-0.311 3.832,-0.93 C 12.033,2.17 12.895,1.24 13.533,0 c 1.03,1.279 2.16,2.219 3.393,2.82 1.232,0.6 2.611,0.901 4.136,0.901 2.49,0 4.429,-0.65 5.817,-1.948 1.389,-1.297 2.083,-3.107 2.083,-5.429 v -10.567 c 0,-1.316 -0.374,-2.36 -1.124,-3.13 -0.75,-0.77 -1.764,-1.155 -3.041,-1.155 -1.266,0 -2.276,0.392 -3.032,1.174 -0.757,0.782 -1.135,1.857 -1.135,3.227 v 7.334 c 0,1.355 -0.228,2.326 -0.685,2.913 -0.457,0.587 -1.206,0.88 -2.249,0.88 -0.964,0 -1.691,-0.317 -2.18,-0.949 -0.489,-0.632 -0.733,-1.606 -0.733,-2.923 v -7.373 c 0,-1.343 -0.369,-2.392 -1.105,-3.148 -0.737,-0.756 -1.756,-1.135 -3.06,-1.135 -1.251,0 -2.252,0.395 -3.001,1.184 -0.75,0.789 -1.125,1.861 -1.125,3.217 v 7.04 c 0,1.433 -0.231,2.473 -0.694,3.118 C 5.335,-3.303 4.576,-2.98 3.52,-2.98 2.594,-2.98 1.883,-3.3 1.389,-3.938 0.893,-4.577 0.645,-5.51 0.645,-6.735 v -7.49 c 0,-1.291 -0.387,-2.327 -1.164,-3.109 -0.776,-0.782 -1.789,-1.174 -3.04,-1.174 -1.252,0 -2.252,0.395 -3.002,1.184 -0.75,0.789 -1.125,1.862 -1.125,3.219 v 13.537 c 0,1.343 0.327,2.361 0.979,3.052 0.651,0.691 1.603,1.037 2.854,1.037 1.174,0 2.087,-0.306 2.74,-0.919 0.351,-0.313 0.625,-0.685 0.82,-1.116 C -0.098,1.057 0,0.562 0,0"
         style="fill:#fff200;fill-opacity:1;fill-rule:nonzero;stroke:none"
         transform="matrix(1.3333333,0,0,-1.3333333,398.25787,491.65133)"
         clip-path="url(#clipPath19)" />
      <path
         id="path20"
         d="m 0,0 c 0,0 -2.019,8.009 6.36,14.818 0,0 3.698,13.284 20.042,16.243 16.345,2.959 17.16,-6.578 34.831,-2.123 0,0 -21.389,-10.663 -35.437,-10.733 C 11.749,18.133 -0.304,14.521 0.231,-0.49 Z"
         style="fill:#fff200;fill-opacity:1;fill-rule:nonzero;stroke:none"
         transform="matrix(1.3333333,0,0,-1.3333333,333.35547,502.23987)"
         clip-path="url(#clipPath21)" />
      <path
         id="path22"
         d="M 0,0 C 11.482,12.325 27.815,11.375 27.815,11.375 12.957,9.831 3.16,2.535 0.077,-0.079 Z"
         style="fill:#009e59;fill-opacity:1;fill-rule:nonzero;stroke:none"
         transform="matrix(1.3333333,0,0,-1.3333333,343.5052,481.34667)"
         clip-path="url(#clipPath23)" />
      <path
         id="path24"
         d="m 0,0 c 0,4.696 3.807,8.504 8.504,8.504 h 19.259 c 4.696,0 8.504,-3.808 8.504,-8.504 v -19.259 c 0,-4.697 -3.808,-8.504 -8.504,-8.504 H 8.504 C 3.807,-27.763 0,-23.956 0,-19.259 Z"
         style="fill:#fff200;fill-opacity:1;fill-rule:nonzero;stroke:none"
         transform="matrix(1.3333333,0,0,-1.3333333,192.0488,485.35573)"
         clip-path="url(#clipPath25)" />
      <path
         id="path26"
         d="m 0,0 c 0,-1.469 -1.197,-2.666 -2.665,-2.666 -1.469,0 -2.665,1.197 -2.665,2.666 0,1.469 1.196,2.666 2.665,2.666 C -1.197,2.666 0,1.469 0,0 m -0.326,0 c 0,1.305 -1.033,2.338 -2.339,2.338 -1.252,0 -2.339,-1.033 -2.339,-2.338 0,-1.252 1.087,-2.285 2.339,-2.285 1.306,0 2.339,1.033 2.339,2.285"
         style="fill:#009e59;fill-opacity:1;fill-rule:nonzero;stroke:none"
         transform="matrix(1.3333333,0,0,-1.3333333,231.6048,515.00547)"
         clip-path="url(#clipPath27)" />
      <path
         id="path28"
         d="m 0,0 c 0.381,0 0.652,-0.108 0.816,-0.271 0.163,-0.11 0.272,-0.326 0.272,-0.599 0,-0.435 -0.272,-0.706 -0.652,-0.816 0.271,-0.107 0.435,-0.326 0.543,-0.652 0.109,-0.49 0.164,-0.816 0.272,-0.926 H 0.762 C 0.707,-3.154 0.598,-2.883 0.544,-2.502 0.436,-2.121 0.271,-1.957 0,-1.848 h -0.218 -0.434 v -1.416 h -0.435 v 3.209 C -0.871,0 -0.544,0 -0.218,0 Z m 0,-1.521 c 0.381,0.053 0.652,0.271 0.652,0.597 0,0.38 -0.271,0.543 -0.652,0.598 h -0.164 -0.488 v -1.195 h 0.488 z"
         style="fill:#009e59;fill-opacity:1;fill-rule:nonzero;stroke:none"
         transform="matrix(1.3333333,0,0,-1.3333333,228.1192,512.83613)"
         clip-path="url(#clipPath29)" />
      <path
         id="path30"
         d="m 0,0 -0.091,-0.126 c -0.126,-0.182 -0.922,-1.826 -0.922,-1.826 -2.351,-6.294 -6.583,-8.283 -6.583,-8.283 -4.196,-2.134 -6.873,1.158 -6.873,1.158 -6.872,6.69 -0.145,12.693 -0.145,12.693 3.292,2.93 9.26,1.447 9.984,1.285 0.723,-0.164 2.604,-0.38 3.02,-0.109 0.416,0.271 0.742,0.994 0.742,0.994 1.953,3.617 3.942,6.076 5.715,7.307 1.772,1.229 3.183,0.144 3.4,0.325 0.217,0.181 -0.144,1.121 0.253,1.917 0.398,0.796 1.085,0.144 1.23,-0.072 0.145,-0.217 0.434,-0.832 0.687,-0.688 0.253,0.145 0.977,0.399 1.411,-0.289 C 12.262,13.599 10.924,12.587 10.49,12.622 10.056,12.659 9.911,12.225 9.911,12.225 11.647,10.524 11.286,7.632 11.286,7.632 10.851,5.1 8.645,5.534 8.645,5.534 6.655,6.511 7.704,7.632 7.704,7.632 8.608,9.114 7.343,9.91 7.343,9.91 5.281,11.176 3.942,7.776 2.604,5.751 1.266,3.726 3.074,3.399 3.074,3.399 4.702,3.509 5.498,3.979 6.149,4.341 6.8,4.702 7.125,5.534 8.717,5.063 10.309,4.593 9.44,2.604 9.44,2.604 c 0,0 -8.319,-15.045 -8.753,-15.587 -0.434,-0.543 -1.121,-2.135 -2.785,-1.484 -1.664,0.652 -0.506,2.605 -0.506,2.605 0,0 5.353,9.113 6.51,10.994 C 5.064,1.013 3.038,0.651 1.808,0.724 0.579,0.796 0,0 0,0 m -3.256,1.483 c 0,0 -5.968,1.194 -7.017,0.832 -1.049,-0.362 -4.449,-1.99 -3.581,-6.438 0,0 0.615,-3.616 3.689,-3.689 0,0 2.352,0.073 4.666,4.268 0,0 1.737,3.11 2.316,4.34 0,0 0.126,0.307 0.054,0.56 z"
         style="fill:#009e59;fill-opacity:1;fill-rule:nonzero;stroke:none"
         transform="matrix(1.3333333,0,0,-1.3333333,218.5176,498.33493)"
         clip-path="url(#clipPath31)" />
    </g>
  </g>
</svg>
